<svg width="34" height="34" viewBox="0 0 34 34" fill="none" xmlns="http://www.w3.org/2000/svg">
<rect width="34" height="34" fill="white"/>
<path d="M27.6877 7.57667C28.3926 8.3792 28.7486 8.66496 29.041 9.45794C29.1619 9.78538 29.3163 10.1002 29.4456 10.4246C29.5108 10.5892 29.5527 10.7629 29.6087 10.9314C29.6786 11.1421 29.7568 11.3505 29.8229 11.5629C29.8509 11.6541 29.856 11.7531 29.8714 11.849C29.4979 11.8712 29.2828 11.4682 28.8662 11.5559C28.949 11.8082 29.023 12.0436 29.1025 12.2772C29.2899 12.8309 29.4824 13.3825 29.6669 13.937C29.907 14.6571 29.9656 15.404 29.9702 16.1588C29.9714 16.3551 30.0062 16.5518 29.999 16.7472C29.9844 17.1611 29.9476 17.5741 29.9317 17.9879C29.9275 18.0926 29.9823 18.199 29.9815 18.3045C29.9798 18.5052 29.9622 18.7054 29.9417 18.9051C29.9204 19.1092 29.889 19.3125 29.8581 19.5161C29.7882 19.9847 29.7016 20.452 29.6464 20.9228C29.533 21.8756 29.0866 22.7128 28.7871 23.6005C28.5089 24.4273 28.0483 25.1526 27.5927 25.8817C27.466 26.0854 27.3827 26.3169 27.261 26.5245C26.9522 27.0521 26.6364 27.5758 26.3168 28.0961C26.2189 28.2546 26.1068 28.4049 25.9871 28.5464C25.775 28.797 25.5717 28.8426 25.2835 28.6884C25.0446 28.5603 24.8162 28.4092 24.589 28.2589C24.3435 28.097 24.223 28.1174 24.082 28.3679C23.9142 28.6667 23.7774 28.9885 23.5766 29.2604C23.3875 29.5166 23.1294 29.719 22.906 29.9491C22.7722 30.0868 22.6303 30.221 22.5195 30.3769C22.2547 30.7512 22.0769 30.7938 21.6953 30.5428C21.6514 30.5137 21.6071 30.4868 21.5585 30.4564C21.446 30.5775 21.3439 30.7009 21.2293 30.8099C20.6152 31.3918 19.9032 31.8065 19.1351 32.1387C18.5607 32.3871 18.0072 32.6881 17.4379 32.9495C17.327 33.0003 17.1731 33.0164 17.0584 32.9812C16.6062 32.8436 16.1598 32.6855 15.7155 32.5226C15.1361 32.3111 14.5973 32.0154 14.0572 31.7127C13.6142 31.4647 13.2917 31.0848 12.893 30.7947C12.8378 30.7547 12.7696 30.7339 12.7068 30.7043C12.6905 30.7716 12.6662 30.8381 12.6595 30.9067C12.6516 30.994 12.6708 31.0852 12.6537 31.1699C12.639 31.2424 12.6056 31.334 12.5516 31.3675C12.511 31.3927 12.4115 31.3562 12.3596 31.3171C12.1337 31.1451 11.8998 30.9784 11.6969 30.7795C11.2267 30.3178 10.7724 29.8384 10.3126 29.3659C10.2675 29.3199 10.226 29.2712 10.1595 29.1974C10.1194 29.3064 10.0922 29.3867 10.0604 29.4645C10.0181 29.5687 9.95746 29.6256 9.85162 29.534C9.70688 29.4085 9.56087 29.2838 9.41613 29.1575C9.35631 29.1053 9.30067 29.0471 9.24001 28.9955C9.14504 28.9143 9.06597 28.9195 8.99946 29.0393C8.94424 29.1392 8.87856 29.2334 8.81371 29.3273C8.73381 29.4428 8.63048 29.4671 8.52882 29.3668C8.16779 29.0128 7.80425 28.6611 7.45619 28.2941C7.18259 28.0058 6.90356 27.7161 6.67556 27.3904C6.39945 26.9956 6.15012 26.5761 5.93258 26.1436C5.63556 25.5525 5.36782 24.9441 5.1097 24.3335C4.91057 23.8615 4.73947 23.3764 4.56795 22.8926C4.49808 22.695 4.4642 22.4835 4.40772 22.2803C4.37593 22.1683 4.3274 22.061 4.29226 21.9494C4.10275 21.3496 4.06803 20.7273 4.03916 20.1042C4.02452 19.7858 3.99272 19.4671 4.00151 19.1496C4.01322 18.7093 4.03079 18.2659 4.09187 17.8307C4.1747 17.2384 4.26758 16.643 4.41692 16.0654C4.57631 15.45 4.78967 14.8468 5.01055 14.2506C5.39208 13.2209 5.79829 12.2004 6.19321 11.1759C6.20283 11.1516 6.2066 11.1251 6.23086 11.0313C5.92463 11.0126 5.64518 10.9866 5.36531 10.9814C5.02352 10.9753 4.68174 10.9935 4.33995 10.9866C4.20692 10.984 4.12283 10.8811 4.16885 10.749C4.23285 10.5679 4.31192 10.386 4.41734 10.2275C4.87585 9.53958 5.46153 8.97894 6.09615 8.46258C6.85712 7.84288 7.66201 7.31437 8.59952 7.01949C8.7861 6.96087 8.96055 6.86185 9.16094 6.77239C8.72963 6.39023 8.2958 6.00633 7.83228 5.59551C8.47025 5.3154 9.06932 5.05484 9.66672 4.78993C10.0767 4.60841 10.4837 4.41776 10.8946 4.2371C11.5208 3.96177 12.158 3.71988 12.8298 3.58569C13.2565 3.50014 13.6824 3.41198 14.1045 3.30602C15.1357 3.04719 16.1912 3.06761 17.2391 3.01245C17.4814 2.99942 18.0558 2.99334 18.3009 3.01072C18.5055 3.02505 18.7406 3.065 18.9464 3.065C19.6785 3.065 19.9124 3.13622 20.4345 3.29864C20.7005 3.38158 21.0444 3.54357 21.205 3.63998C21.4105 3.76288 21.6313 3.83757 21.8275 3.94614C22.0438 4.06557 22.3547 4.24014 22.5421 4.36912C22.786 4.53632 22.8968 4.65965 23.0914 4.82598C23.2461 4.95843 23.4603 5.0961 23.6323 5.25634C24.1477 5.73752 24.1933 5.99287 24.1933 5.99287C24.1933 5.99287 24.4911 6.02544 24.8329 6.08277C25.3157 6.16441 25.3584 6.25561 25.8378 6.43844C26.1624 6.56264 26.2662 6.58479 26.6013 6.77369C26.9368 6.9626 27.4241 7.25009 27.6877 7.57667" stroke="#333333" stroke-width="1.28"/>
<path d="M26.6417 16.3584C26.4388 15.4599 26.1527 14.607 25.7076 13.8045C25.2762 13.0271 24.7772 12.311 24.1045 11.7343C24.0388 11.6783 23.971 11.6197 23.8953 11.5832C23.6853 11.4816 23.5548 11.5406 23.5 11.7677C23.4159 12.1152 23.3389 12.4643 23.2669 12.8148C23.2276 13.0054 23.0992 13.0775 22.9356 12.9802C22.8854 12.9503 22.8407 12.9064 22.8022 12.8608C22.603 12.622 22.4131 12.3744 22.2064 12.1421C21.9939 11.9024 21.7735 11.6683 21.5434 11.4455C21.0485 10.9661 20.5502 10.4897 20.0428 10.025C19.7056 9.71667 19.3441 9.43743 19.0049 9.13214C18.8693 9.01011 18.7371 9.0088 18.6204 9.10999C18.5597 9.16254 18.5505 9.28413 18.5275 9.3775C18.3556 10.0628 18.2025 10.7494 18.1376 11.4585C18.1 11.8646 17.9921 12.2663 17.8908 12.6632C17.8088 12.9846 17.6582 13.0302 17.3834 12.8552C17.3608 12.8408 17.3424 12.8213 17.321 12.8052C16.8115 12.4126 16.3902 11.9289 16.012 11.4095C15.7054 10.9887 15.4293 10.5448 15.1511 10.1036C14.9658 9.81004 14.8206 9.48781 14.6206 9.2064C14.4345 8.94453 14.1609 8.9441 13.9722 9.19815C13.6463 9.6372 13.3313 10.0871 13.0376 10.55C12.7481 11.0078 12.5084 11.4981 12.216 11.9527C11.9733 12.3293 11.9733 12.3293 11.6458 13.1496C11.4291 13.5739 11.4291 13.5739 11.3036 13.5135C11.0886 13.4097 10.9087 13.1092 10.817 12.8486C10.7104 12.5451 10.6066 12.2402 10.505 11.9345C10.4619 11.8064 10.3941 11.6839 10.2548 11.7847C9.98245 11.9814 9.7076 12.1838 9.4704 12.4222C9.08845 12.807 8.72658 13.213 8.4693 13.705C8.30824 14.0129 8.1066 14.3 7.96436 14.6157C7.73009 15.1329 7.51632 15.6567 7.35567 16.2099C6.74698 17.8046 7.24983 19.0909 7.24983 19.0909C7.31091 19.7367 7.89785 20.3516 8.50444 20.4814C9.00102 20.5874 9.49341 20.7116 10.0113 20.7285C10.7012 20.7503 11.3755 20.7481 12.0361 20.5018C12.3369 20.3894 12.6573 20.3334 12.9703 20.2578C13.1874 20.2061 13.4066 20.1666 13.6245 20.1184C13.9145 20.0541 14.2562 20.2209 14.2692 20.4558C14.2859 20.7581 14.3462 21.0417 14.4608 21.3226C14.6156 21.7022 14.8269 22.0327 15.1967 22.199C15.5857 22.374 15.9907 22.523 16.4011 22.6376C16.901 22.7774 17.3988 22.6624 17.8364 22.4179C18.3807 22.113 18.6388 21.5927 18.6254 20.9518C18.6212 20.762 18.7041 20.6656 18.8384 20.5548C19.196 20.2587 19.6002 20.3955 19.9884 20.3976C20.1482 20.3985 20.3076 20.4467 20.4674 20.4758C20.8242 20.5405 21.1798 20.6109 21.5371 20.6721C21.9245 20.7385 22.3123 20.8037 22.7018 20.8567C22.8846 20.8818 23.072 20.8688 23.2556 20.887C23.5887 20.9205 23.9212 20.9982 24.2534 20.9961C24.6855 20.9934 25.1164 20.9496 25.5411 20.8249C25.8908 20.7225 26.1941 20.5557 26.4447 20.3012C27.4336 19.0661 26.6417 16.3584 26.6417 16.3584" stroke="#333333" stroke-width="1.28"/>
<path d="M13.5928 16.3584C12.9941 16.3584 12.9218 16.6615 12.8682 16.8483C12.8151 17.035 12.6766 17.4593 13.033 17.7463C13.3899 18.0334 13.7643 18.0573 14.091 17.7932C14.4178 17.5292 14.437 17.3533 14.3705 17.025C14.3044 16.6967 14.1797 16.3584 13.5928 16.3584" stroke="#333333" stroke-width="1.28"/>
<path d="M19.938 16.5164C19.4532 16.8807 19.5653 17.1704 19.6276 17.3541C19.69 17.5382 19.8175 17.9655 20.2685 17.9812C20.7195 17.9968 21.0366 17.7884 21.1521 17.3758C21.2675 16.9628 21.1839 16.8086 20.9446 16.5828C20.7057 16.357 20.4137 16.159 19.938 16.5164" stroke="#333333" stroke-width="1.28"/>
</svg>
