<svg width="33" height="34" viewBox="0 0 33 34" fill="none" xmlns="http://www.w3.org/2000/svg">
<rect width="32.6923" height="34" transform="translate(0.154297)" fill="white"/>
<path fill-rule="evenodd" clip-rule="evenodd" d="M27.1213 7.97682C27.0168 7.85688 26.9025 7.72568 26.7766 7.57667C26.5232 7.25009 26.0546 6.9626 25.732 6.77369C25.4743 6.62261 25.3589 6.57819 25.1633 6.50292C25.1143 6.48408 25.0604 6.4633 24.9979 6.43844C24.8415 6.3764 24.7334 6.32491 24.6407 6.28077C24.4603 6.19482 24.3383 6.13671 24.0317 6.08277C23.703 6.02544 23.4166 5.99287 23.4166 5.99287C23.4166 5.99287 23.3728 5.73752 22.8772 5.25634C22.7813 5.16341 22.6718 5.07808 22.5676 4.99695C22.4922 4.93818 22.4196 4.88162 22.3571 4.82598C22.301 4.77614 22.2522 4.73017 22.205 4.68572C22.0947 4.58181 21.9932 4.48622 21.8289 4.36912C21.6487 4.24014 21.3498 4.06557 21.1419 3.94614C21.0571 3.89738 20.9676 3.85545 20.8768 3.81291C20.7654 3.76075 20.6521 3.70768 20.5433 3.63998C20.3888 3.54357 20.0582 3.38158 19.8024 3.29864C19.3003 3.13622 19.0755 3.065 18.3715 3.065C18.2483 3.065 18.1141 3.0495 17.9829 3.03435C17.9035 3.02517 17.8251 3.01612 17.7509 3.01072C17.5152 2.99334 16.9629 2.99942 16.73 3.01245C16.5153 3.0242 16.3003 3.03252 16.0852 3.04085C15.2909 3.07158 14.4962 3.10234 13.7159 3.30602C13.31 3.41198 12.9005 3.50014 12.4902 3.58569C11.8442 3.71988 11.2316 3.96177 10.6294 4.2371C10.4207 4.33253 10.2131 4.43073 10.0055 4.52891C9.82012 4.61661 9.63476 4.70429 9.44876 4.78993C9.06447 4.96716 8.67946 5.14244 8.283 5.32293C8.08686 5.41223 7.88792 5.5028 7.68488 5.59551C7.93508 5.82613 8.17627 6.04826 8.41309 6.26636C8.59814 6.43679 8.78052 6.60476 8.96244 6.77239C8.90021 6.80128 8.84058 6.83117 8.78233 6.86038C8.6602 6.9216 8.54408 6.9798 8.42262 7.01949C7.52117 7.31437 6.74723 7.84288 6.01553 8.46258C5.40532 8.97894 4.84216 9.53958 4.40129 10.2275C4.29992 10.386 4.2239 10.5679 4.16235 10.749C4.11811 10.8811 4.19896 10.984 4.32687 10.9866C4.49408 10.9901 4.66128 10.9871 4.82849 10.9841C4.98992 10.9813 5.15136 10.9784 5.3128 10.9814C5.49919 10.985 5.68538 10.9986 5.88007 11.0128C5.96647 11.0191 6.05455 11.0256 6.14506 11.0313C6.13559 11.0694 6.12937 11.0964 6.1247 11.1166C6.11786 11.1463 6.11435 11.1615 6.10886 11.1759C5.99029 11.4958 5.87067 11.8153 5.75105 12.1348C5.48754 12.8386 5.224 13.5424 4.97169 14.2506C4.7593 14.8468 4.55415 15.45 4.40089 16.0654C4.25728 16.643 4.16798 17.2384 4.08834 17.8307C4.02961 18.2659 4.01271 18.7093 4.00145 19.1496C3.99551 19.3727 4.00885 19.5965 4.02219 19.8203C4.02783 19.9149 4.03347 20.0096 4.03765 20.1042C4.06541 20.7273 4.0988 21.3496 4.28102 21.9494C4.29614 21.9993 4.31385 22.0484 4.33154 22.0975C4.35336 22.158 4.37515 22.2184 4.39204 22.2803C4.41293 22.3585 4.4306 22.4379 4.44827 22.5172C4.47653 22.6442 4.50477 22.771 4.5461 22.8926L4.5591 22.9307C4.71969 23.4019 4.88058 23.8739 5.06702 24.3335C5.31521 24.9441 5.57265 25.5525 5.85825 26.1436C6.06742 26.5761 6.30717 26.9956 6.57265 27.3904C6.78159 27.7008 7.0351 27.9785 7.28618 28.2535C7.29855 28.267 7.31091 28.2806 7.32326 28.2941C7.61366 28.6125 7.91526 28.9195 8.21677 29.2264C8.26274 29.2732 8.30871 29.3199 8.35464 29.3668C8.45238 29.4671 8.55174 29.4428 8.62857 29.3273L8.63532 29.3171C8.69546 29.2266 8.75599 29.1356 8.80717 29.0393C8.87113 28.9195 8.94715 28.9143 9.03847 28.9955C9.06931 29.0228 9.09881 29.0519 9.12826 29.0811C9.1545 29.107 9.18071 29.1329 9.20782 29.1575C9.29007 29.2321 9.37274 29.3062 9.45533 29.3802C9.5125 29.4314 9.56963 29.4826 9.62656 29.534C9.72833 29.6256 9.78666 29.5687 9.82729 29.4645C9.84802 29.4118 9.86671 29.3579 9.88864 29.2946C9.89905 29.2646 9.91019 29.2325 9.92262 29.1974C9.94222 29.22 9.95956 29.2403 9.97542 29.2588C10.0113 29.3008 10.0397 29.334 10.0698 29.3659C10.1886 29.4928 10.3069 29.6202 10.4252 29.7476C10.7476 30.0946 11.0702 30.4418 11.4009 30.7795C11.5632 30.9449 11.7461 31.0882 11.9281 31.2307C11.9649 31.2595 12.0016 31.2882 12.0381 31.3171C12.0879 31.3562 12.1837 31.3927 12.2227 31.3675C12.2746 31.334 12.3068 31.2424 12.3209 31.1699C12.3303 31.1214 12.3283 31.0709 12.3262 31.0201C12.3247 30.9821 12.3232 30.9441 12.3265 30.9067C12.3309 30.8594 12.3434 30.8131 12.3558 30.7669C12.3615 30.7461 12.3671 30.7252 12.3719 30.7043C12.3906 30.7135 12.4097 30.7217 12.4288 30.73C12.4716 30.7486 12.5142 30.767 12.5509 30.7947C12.7032 30.9099 12.844 31.0393 12.985 31.169C13.199 31.3658 13.4136 31.5632 13.6704 31.7127C14.1897 32.0154 14.7078 32.3111 15.2649 32.5226C15.6921 32.6855 16.1213 32.8436 16.5562 32.9812C16.6664 33.0164 16.8144 33.0003 16.921 32.9495C17.1562 32.8372 17.3887 32.7176 17.621 32.598C17.9295 32.4392 18.238 32.2804 18.553 32.1387C19.2915 31.8065 19.9761 31.3918 20.5666 30.8099C20.6407 30.7366 20.7093 30.657 20.7791 30.5758C20.8133 30.5361 20.8477 30.4961 20.8832 30.4564C20.8956 30.4644 20.9076 30.4722 20.9195 30.4799C20.9524 30.5012 20.9837 30.5214 21.0148 30.5428C21.3816 30.7938 21.5526 30.7512 21.8072 30.3769C21.8948 30.2488 22.0024 30.1354 22.1095 30.0226C22.1327 29.9981 22.1559 29.9737 22.1789 29.9491C22.2513 29.8715 22.3276 29.797 22.4038 29.7226C22.5536 29.5763 22.7032 29.4302 22.8237 29.2604C22.9544 29.0763 23.0569 28.8694 23.1595 28.6622C23.2085 28.5634 23.2575 28.4645 23.3096 28.3679C23.4452 28.1174 23.561 28.097 23.7971 28.2589L23.7979 28.2595C24.0161 28.4096 24.2355 28.5605 24.4649 28.6884C24.742 28.8426 24.9375 28.797 25.1415 28.5464C25.2565 28.4049 25.3643 28.2546 25.4584 28.0961C25.7658 27.5758 26.0695 27.0521 26.3663 26.5245C26.4211 26.4274 26.4677 26.325 26.5144 26.2228C26.5674 26.1064 26.6204 25.9901 26.6853 25.8817C26.6982 25.8603 26.7111 25.8388 26.724 25.8173C27.1493 25.1098 27.5741 24.403 27.8337 23.6005C27.9218 23.3291 28.0231 23.0624 28.1243 22.7957C28.3543 22.1901 28.5843 21.5843 28.66 20.9228C28.6947 20.6152 28.7422 20.3091 28.7898 20.0031C28.815 19.8408 28.8402 19.6786 28.8635 19.5161L28.8676 19.4883C28.896 19.2939 28.9244 19.0999 28.944 18.9051C28.9637 18.7054 28.9806 18.5052 28.9822 18.3045C28.9826 18.2532 28.9703 18.2017 28.9581 18.1503C28.9452 18.0959 28.9322 18.0417 28.9343 17.9879C28.9417 17.787 28.9539 17.5863 28.9661 17.3856C28.9789 17.1729 28.9918 16.9602 28.9991 16.7472C29.0029 16.6387 28.9943 16.5298 28.9857 16.4208C28.9788 16.3335 28.9719 16.2461 28.9713 16.1588C28.9669 15.404 28.9106 14.6571 28.6797 13.937C28.5716 13.5991 28.4606 13.2623 28.3497 12.9254C28.2786 12.7095 28.2074 12.4935 28.137 12.2772C28.0878 12.1266 28.0407 11.9752 27.9921 11.819C27.9653 11.733 27.9381 11.6455 27.9098 11.5559C28.1262 11.5085 28.2861 11.6044 28.444 11.699C28.5783 11.7795 28.7112 11.8592 28.8764 11.849C28.8718 11.8192 28.8681 11.789 28.8644 11.7589C28.8564 11.6922 28.8483 11.6257 28.8297 11.5629C28.7918 11.4362 28.7497 11.3109 28.7077 11.1857C28.6793 11.101 28.6509 11.0164 28.6238 10.9314C28.6035 10.868 28.5851 10.8039 28.5668 10.7397C28.5364 10.6335 28.506 10.5273 28.4669 10.4246C28.4136 10.2855 28.3558 10.1481 28.2981 10.0107C28.2212 9.82779 28.1443 9.64492 28.0779 9.45794C27.849 8.8122 27.5794 8.50281 27.1213 7.97682ZM24.8743 13.8045C25.3023 14.607 25.5775 15.4599 25.7726 16.3584C25.7726 16.3584 26.534 19.0661 25.5831 20.3012C25.3422 20.5557 25.0505 20.7224 24.7142 20.8249C24.3059 20.9496 23.8916 20.9934 23.4761 20.996C23.2708 20.9974 23.0653 20.9658 22.8596 20.9341C22.7454 20.9166 22.6311 20.899 22.5167 20.887C22.4373 20.8788 22.3571 20.8769 22.2769 20.8751C22.1788 20.8728 22.0808 20.8705 21.9841 20.8566C21.6096 20.8036 21.2368 20.7385 20.8643 20.6721C20.6527 20.6343 20.4417 20.5932 20.2307 20.552C20.0991 20.5263 19.9675 20.5006 19.8357 20.4758C19.7914 20.4674 19.7472 20.4574 19.703 20.4474C19.5937 20.4228 19.4845 20.3982 19.3751 20.3976C19.2867 20.3971 19.1973 20.389 19.1079 20.3809C18.8201 20.3549 18.5317 20.3288 18.2693 20.5548C18.1402 20.6655 18.0606 20.7619 18.0646 20.9517C18.0775 21.5927 17.8293 22.113 17.3059 22.4178C16.8852 22.6623 16.4065 22.7774 15.9258 22.6376C15.5312 22.5229 15.1418 22.374 14.7677 22.199C14.4121 22.0326 14.209 21.7021 14.0602 21.3226C13.9499 21.0416 13.892 20.758 13.8759 20.4558C13.8635 20.2208 13.5348 20.0541 13.2561 20.1184C13.169 20.1384 13.0818 20.1569 12.9946 20.1754C12.8718 20.2015 12.749 20.2275 12.6269 20.2578C12.5491 20.2773 12.4708 20.2955 12.3925 20.3138C12.1679 20.3661 11.9431 20.4184 11.7287 20.5018C11.0935 20.7481 10.4451 20.7502 9.78179 20.7285C9.35607 20.714 8.94828 20.6212 8.54059 20.5283C8.47138 20.5125 8.40217 20.4968 8.33288 20.4814C7.74961 20.3516 7.18525 19.7366 7.12652 19.0909C7.12652 19.0909 6.64301 17.8045 7.22829 16.2099C7.38275 15.6566 7.58831 15.1329 7.81357 14.6157C7.89435 14.4292 7.99507 14.2527 8.0959 14.076C8.16577 13.9536 8.2357 13.831 8.29909 13.705C8.54647 13.213 8.89442 12.8069 9.26168 12.4222C9.48976 12.1837 9.75404 11.9814 10.0159 11.7846C10.1499 11.6839 10.215 11.8064 10.2565 11.9345C10.3542 12.2402 10.454 12.5451 10.5565 12.8486C10.6446 13.1092 10.8176 13.4097 11.0244 13.5135C11.0609 13.5318 11.0864 13.5445 11.1099 13.5416C11.1641 13.5349 11.2081 13.4454 11.3534 13.1496L11.3534 13.1495C11.6684 12.3292 11.6684 12.3292 11.9017 11.9527C12.0469 11.7179 12.1786 11.4736 12.3103 11.2291C12.4337 11.0003 12.5571 10.7713 12.6917 10.55C12.9741 10.0871 13.277 9.63716 13.5903 9.19811C13.7717 8.94406 14.0348 8.9445 14.2138 9.20636C14.3254 9.36961 14.4192 9.54658 14.5131 9.72374C14.581 9.85197 14.649 9.9803 14.7239 10.1036C14.7444 10.1374 14.7648 10.1711 14.7853 10.2049C15.0322 10.6126 15.2794 11.0208 15.5517 11.4094C15.9153 11.9288 16.3204 12.4126 16.8104 12.8052C16.8187 12.8117 16.8265 12.8188 16.8344 12.8258C16.8459 12.8362 16.8574 12.8466 16.8703 12.8551C17.1346 13.0301 17.2794 12.9845 17.3582 12.6632C17.3652 12.6349 17.3721 12.6067 17.3791 12.5784C17.47 12.2091 17.5619 11.8357 17.5956 11.4585C17.6579 10.7493 17.8051 10.0628 17.9705 9.37747C17.9755 9.35604 17.9799 9.33312 17.9844 9.3099C17.9993 9.23192 18.0148 9.15044 18.0598 9.10996C18.172 9.00877 18.2991 9.01007 18.4294 9.1321C18.5842 9.27697 18.7438 9.41598 18.9035 9.55501C19.0802 9.70896 19.2571 9.86295 19.4274 10.025C19.9154 10.4896 20.3944 10.966 20.8703 11.4455C21.0915 11.6683 21.3035 11.9023 21.5079 12.1421C21.6353 12.2911 21.7562 12.4463 21.877 12.6016C21.9445 12.6884 22.012 12.7751 22.0807 12.8608C22.1177 12.9064 22.1607 12.9502 22.209 12.9802C22.3663 13.0775 22.4898 13.0054 22.5276 12.8147C22.5968 12.4643 22.6708 12.1151 22.7516 11.7677C22.8043 11.5406 22.9298 11.4815 23.1318 11.5831C23.2026 11.6186 23.2661 11.675 23.3277 11.7296L23.3329 11.7343C23.9797 12.311 24.4596 13.0271 24.8743 13.8045Z" fill="#DECECC"/>
<path d="M26.7766 7.57667L26.271 7.96903L26.2791 7.9795L26.2877 7.98962L26.7766 7.57667ZM27.1213 7.97682L27.6038 7.55645L27.6038 7.55644L27.1213 7.97682ZM25.732 6.77369L25.4083 7.3258L25.4086 7.32597L25.732 6.77369ZM25.1633 6.50292L24.9334 7.10021V7.10021L25.1633 6.50292ZM24.9979 6.43844L25.2345 5.84378L25.2338 5.84352L24.9979 6.43844ZM24.6407 6.28077L24.3655 6.85855L24.3655 6.85855L24.6407 6.28077ZM24.0317 6.08277L24.1425 5.45244L24.1416 5.45229L24.0317 6.08277ZM23.4166 5.99287L22.7858 6.10118L22.8671 6.57451L23.3443 6.62877L23.4166 5.99287ZM22.8772 5.25634L23.323 4.79717L23.3226 4.79679L22.8772 5.25634ZM22.5676 4.99695L22.1743 5.50183L22.1743 5.50183L22.5676 4.99695ZM22.3571 4.82598L22.7825 4.34788L22.7824 4.34771L22.3571 4.82598ZM22.205 4.68572L22.6438 4.21979V4.21979L22.205 4.68572ZM21.8289 4.36912L21.4564 4.88956L21.4574 4.89024L21.8289 4.36912ZM21.1419 3.94614L20.8226 4.50085L20.8232 4.50114L21.1419 3.94614ZM20.8768 3.81291L20.6053 4.39249L20.6053 4.39249L20.8768 3.81291ZM20.5433 3.63998L20.2044 4.18291L20.2052 4.18337L20.5433 3.63998ZM19.8024 3.29864L19.9997 2.68984L19.9994 2.68972L19.8024 3.29864ZM17.9829 3.03435L18.0563 2.39858L17.9829 3.03435ZM17.7509 3.01072L17.7038 3.64898L17.7044 3.64902L17.7509 3.01072ZM16.73 3.01245L16.7649 3.6515L16.7657 3.65145L16.73 3.01245ZM16.0852 3.04085L16.0605 2.40132L16.0852 3.04085ZM13.7159 3.30602L13.5542 2.68677L13.5542 2.68678L13.7159 3.30602ZM12.4902 3.58569L12.6204 4.21232L12.6208 4.21222L12.4902 3.58569ZM10.6294 4.2371L10.3633 3.65506L10.3632 3.65508L10.6294 4.2371ZM10.0055 4.52891L9.73188 3.95037V3.95037L10.0055 4.52891ZM9.44876 4.78993L9.18107 4.20861L9.18074 4.20876L9.44876 4.78993ZM8.283 5.32293L8.01782 4.74046V4.74046L8.283 5.32293ZM7.68488 5.59551L7.41905 5.01333L6.54298 5.41336L7.25112 6.0661L7.68488 5.59551ZM8.41309 6.26636L7.97952 6.73713L7.97952 6.73713L8.41309 6.26636ZM8.96244 6.77239L9.23196 7.35288L10.0996 6.95001L9.39614 6.30174L8.96244 6.77239ZM8.78233 6.86038L8.49553 6.28823L8.49553 6.28823L8.78233 6.86038ZM8.42262 7.01949L8.22382 6.41115L8.22364 6.41121L8.42262 7.01949ZM6.01553 8.46258L6.42894 8.95115L6.42916 8.95096L6.01553 8.46258ZM4.40129 10.2275L3.86246 9.88213L3.86212 9.88267L4.40129 10.2275ZM4.16235 10.749L3.55639 10.5431L3.55553 10.5456L4.16235 10.749ZM4.32687 10.9866L4.3404 10.3467L4.33991 10.3467L4.32687 10.9866ZM4.82849 10.9841L4.83991 11.624H4.83991L4.82849 10.9841ZM5.3128 10.9814L5.32519 10.3415L5.32463 10.3415L5.3128 10.9814ZM5.88007 11.0128L5.92672 10.3745L5.92672 10.3745L5.88007 11.0128ZM6.14506 11.0313L6.76614 11.1858L6.95134 10.4412L6.18557 10.3926L6.14506 11.0313ZM6.1247 11.1166L6.74833 11.2604L6.74833 11.2604L6.1247 11.1166ZM6.10886 11.1759L5.51066 10.9483L5.50875 10.9535L6.10886 11.1759ZM5.75105 12.1348L6.35041 12.3592L5.75105 12.1348ZM4.97169 14.2506L4.36881 14.0358L4.36879 14.0358L4.97169 14.2506ZM4.40089 16.0654L3.77986 15.9107L3.7798 15.911L4.40089 16.0654ZM4.08834 17.8307L4.72259 17.9163L4.72263 17.916L4.08834 17.8307ZM4.00145 19.1496L4.64123 19.1666L4.64124 19.166L4.00145 19.1496ZM4.02219 19.8203L3.38332 19.8584L4.02219 19.8203ZM4.03765 20.1042L3.39828 20.1324L3.39829 20.1326L4.03765 20.1042ZM4.28102 21.9494L4.89356 21.7639L4.89338 21.7633L4.28102 21.9494ZM4.33154 22.0975L3.7295 22.3146L3.7295 22.3146L4.33154 22.0975ZM4.39204 22.2803L5.01036 22.1151L5.00947 22.1118L4.39204 22.2803ZM4.44827 22.5172L5.07298 22.3782L4.44827 22.5172ZM4.5461 22.8926L3.94016 23.0986L3.94033 23.0991L4.5461 22.8926ZM4.5591 22.9307L5.16487 22.7243L5.16487 22.7243L4.5591 22.9307ZM5.06702 24.3335L4.47395 24.5741L4.47413 24.5745L5.06702 24.3335ZM5.85825 26.1436L5.282 26.422L5.28209 26.4222L5.85825 26.1436ZM6.57265 27.3904L6.04159 27.7476L6.04172 27.7478L6.57265 27.3904ZM7.28618 28.2535L7.75884 27.822L7.75883 27.822L7.28618 28.2535ZM7.32326 28.2941L7.79613 27.8628L7.79607 27.8628L7.32326 28.2941ZM8.21677 29.2264L8.67329 28.7778L8.67329 28.7778L8.21677 29.2264ZM8.35464 29.3668L8.81302 28.9201L8.81155 28.9186L8.35464 29.3668ZM8.62857 29.3273L9.16147 29.6817L9.16153 29.6816L8.62857 29.3273ZM8.63532 29.3171L8.10237 28.9627L8.10236 28.9628L8.63532 29.3171ZM8.80717 29.0393L8.24253 28.738L8.24206 28.7389L8.80717 29.0393ZM9.03847 28.9955L8.61315 29.4737L8.61404 29.4745L9.03847 28.9955ZM9.12826 29.0811L9.57815 28.6259L9.57815 28.6259L9.12826 29.0811ZM9.20782 29.1575L9.63804 28.6836L9.63752 28.6832L9.20782 29.1575ZM9.45533 29.3802L9.88242 28.9036H9.88242L9.45533 29.3802ZM9.62656 29.534L9.19796 30.0093L9.19833 30.0096L9.62656 29.534ZM9.82729 29.4645L9.23169 29.2302L9.23099 29.232L9.82729 29.4645ZM9.88864 29.2946L9.28397 29.0849H9.28397L9.88864 29.2946ZM9.92262 29.1974L10.4063 28.7783L9.68649 27.9474L9.31936 28.9837L9.92262 29.1974ZM9.97542 29.2588L10.4617 28.8428L10.4617 28.8427L9.97542 29.2588ZM10.0698 29.3659L10.5372 28.9286L10.5353 28.9266L10.0698 29.3659ZM10.4252 29.7476L10.8941 29.312L10.4252 29.7476ZM11.4009 30.7795L10.9437 31.2273L10.944 31.2276L11.4009 30.7795ZM11.9281 31.2307L11.5335 31.7346L11.5336 31.7346L11.9281 31.2307ZM12.0381 31.3171L11.6408 31.8189L11.6433 31.8209L12.0381 31.3171ZM12.2227 31.3675L11.876 30.8295L11.8756 30.8298L12.2227 31.3675ZM12.3209 31.1699L11.6927 31.0475L11.6926 31.0479L12.3209 31.1699ZM12.3262 31.0201L12.9657 30.9946V30.9946L12.3262 31.0201ZM12.3265 30.9067L11.6893 30.8469L11.6889 30.8509L12.3265 30.9067ZM12.3558 30.7669L11.7379 30.6004L12.3558 30.7669ZM12.3719 30.7043L12.6533 30.1295L11.9312 29.776L11.7486 30.5591L12.3719 30.7043ZM12.4288 30.73L12.6833 30.1428L12.6833 30.1428L12.4288 30.73ZM12.5509 30.7947L12.9371 30.2843L12.9357 30.2833L12.5509 30.7947ZM12.985 31.169L12.5518 31.6401H12.5518L12.985 31.169ZM13.6704 31.7127L13.9927 31.1598L13.9924 31.1596L13.6704 31.7127ZM15.2649 32.5226L15.4929 31.9246L15.4921 31.9243L15.2649 32.5226ZM16.5562 32.9812L16.7508 32.3715L16.7493 32.3711L16.5562 32.9812ZM16.921 32.9495L17.1964 33.5273L17.1968 33.5271L16.921 32.9495ZM17.621 32.598L17.3281 32.0289L17.3281 32.0289L17.621 32.598ZM18.553 32.1387L18.8155 32.7224L18.8155 32.7224L18.553 32.1387ZM20.5666 30.8099L21.0159 31.2657L21.0167 31.2649L20.5666 30.8099ZM20.7791 30.5758L21.2642 30.9933H21.2642L20.7791 30.5758ZM20.8832 30.4564L21.2326 29.9201L20.772 29.6201L20.4059 30.0301L20.8832 30.4564ZM20.9195 30.4799L20.572 31.0173L20.572 31.0173L20.9195 30.4799ZM21.0148 30.5428L20.6517 31.0698L20.6534 31.071L21.0148 30.5428ZM21.8072 30.3769L21.2789 30.0157L21.278 30.0169L21.8072 30.3769ZM22.1095 30.0226L22.5736 30.4632L22.5736 30.4632L22.1095 30.0226ZM22.1789 29.9491L22.6464 30.3862L22.6468 30.3858L22.1789 29.9491ZM22.4038 29.7226L21.9566 29.2647L21.9566 29.2647L22.4038 29.7226ZM22.8237 29.2604L22.3019 28.8898L22.3017 28.89L22.8237 29.2604ZM23.1595 28.6622L23.733 28.9463L23.733 28.9463L23.1595 28.6622ZM23.3096 28.3679L22.7467 28.0634L22.7464 28.0639L23.3096 28.3679ZM23.7971 28.2589L24.1618 27.733L24.1592 27.7312L23.7971 28.2589ZM23.7979 28.2595L23.4332 28.7854L23.4352 28.7868L23.7979 28.2595ZM24.4649 28.6884L24.1531 29.2474L24.1538 29.2477L24.4649 28.6884ZM25.1415 28.5464L25.6378 28.9504L25.6382 28.95L25.1415 28.5464ZM25.4584 28.0961L26.0087 28.4229L26.0095 28.4216L25.4584 28.0961ZM26.3663 26.5245L25.8089 26.2101L25.8085 26.2106L26.3663 26.5245ZM26.5144 26.2228L25.932 25.9573L25.932 25.9573L26.5144 26.2228ZM26.6853 25.8817L26.1367 25.5521L26.1361 25.5531L26.6853 25.8817ZM26.724 25.8173L27.2726 26.147L27.2726 26.147L26.724 25.8173ZM27.8337 23.6005L27.225 23.403L27.2248 23.4035L27.8337 23.6005ZM28.1243 22.7957L28.7226 23.0229L28.7226 23.0229L28.1243 22.7957ZM28.66 20.9228L29.2958 20.9955L29.2959 20.9945L28.66 20.9228ZM28.7898 20.0031L29.4222 20.1014V20.1014L28.7898 20.0031ZM28.8635 19.5161L28.2302 19.4236L28.23 19.4253L28.8635 19.5161ZM28.8676 19.4883L28.2343 19.3956L28.2343 19.3957L28.8676 19.4883ZM28.944 18.9051L29.5808 18.9691L29.5809 18.968L28.944 18.9051ZM28.9822 18.3045L29.6222 18.3097L29.6222 18.3094L28.9822 18.3045ZM28.9581 18.1503L29.5807 18.0021L29.5807 18.0021L28.9581 18.1503ZM28.9343 17.9879L29.5738 18.0125L29.5739 18.0116L28.9343 17.9879ZM28.9661 17.3856L28.3272 17.3469V17.3469L28.9661 17.3856ZM28.9991 16.7472L28.3595 16.7248L28.3594 16.7255L28.9991 16.7472ZM28.9857 16.4208L29.6237 16.3704V16.3704L28.9857 16.4208ZM28.9713 16.1588L28.3313 16.1625L28.3313 16.1627L28.9713 16.1588ZM28.6797 13.937L28.0701 14.132L28.0703 14.1325L28.6797 13.937ZM28.3497 12.9254L28.9576 12.7252V12.7252L28.3497 12.9254ZM28.137 12.2772L28.7456 12.0792L28.7453 12.0783L28.137 12.2772ZM27.9921 11.819L27.381 12.0092L27.381 12.0092L27.9921 11.819ZM27.9098 11.5559L27.7729 10.9307L27.0886 11.0806L27.2995 11.7486L27.9098 11.5559ZM28.444 11.699L28.773 11.1501L28.444 11.699ZM28.8764 11.849L28.9158 12.4878L29.6164 12.4446L29.5088 11.751L28.8764 11.849ZM28.8644 11.7589L28.2291 11.8359L28.2291 11.836L28.8644 11.7589ZM28.8297 11.5629L29.4435 11.3815L29.4429 11.3794L28.8297 11.5629ZM28.7077 11.1857L29.3144 10.982L29.3144 10.982L28.7077 11.1857ZM28.6238 10.9314L29.2335 10.737L29.2333 10.7364L28.6238 10.9314ZM28.5668 10.7397L27.9515 10.9157V10.9157L28.5668 10.7397ZM28.4669 10.4246L29.0649 10.1966L29.0645 10.1956L28.4669 10.4246ZM28.2981 10.0107L27.7081 10.2587V10.2587L28.2981 10.0107ZM28.0779 9.45794L27.4747 9.67182L27.4748 9.67206L28.0779 9.45794ZM25.7726 16.3584L25.1471 16.4942L25.1512 16.5131L25.1565 16.5317L25.7726 16.3584ZM24.8743 13.8045L25.439 13.5033L25.439 13.5032L24.8743 13.8045ZM25.5831 20.3012L26.0478 20.7412L26.0703 20.7175L26.0902 20.6916L25.5831 20.3012ZM24.7142 20.8249L24.5277 20.2127L24.5274 20.2128L24.7142 20.8249ZM23.4761 20.996L23.4721 20.356L23.4717 20.356L23.4761 20.996ZM22.8596 20.9341L22.7623 21.5667H22.7623L22.8596 20.9341ZM22.5167 20.887L22.5832 20.2505L22.5825 20.2504L22.5167 20.887ZM22.2769 20.8751L22.2918 20.2352L22.2918 20.2352L22.2769 20.8751ZM21.9841 20.8566L22.0749 20.2231L22.0738 20.2229L21.9841 20.8566ZM20.8643 20.6721L20.9767 20.042L20.9766 20.042L20.8643 20.6721ZM20.2307 20.552L20.1081 21.1801L20.1081 21.1801L20.2307 20.552ZM19.8357 20.4758L19.7166 21.1046L19.7171 21.1047L19.8357 20.4758ZM19.703 20.4474L19.5623 21.0718H19.5623L19.703 20.4474ZM19.3751 20.3976L19.3714 21.0376H19.3715L19.3751 20.3976ZM19.1079 20.3809L19.1656 19.7435H19.1656L19.1079 20.3809ZM18.2693 20.5548L18.686 21.0406L18.687 21.0398L18.2693 20.5548ZM18.0646 20.9517L18.7045 20.9389L18.7044 20.9382L18.0646 20.9517ZM17.3059 22.4178L17.6275 22.9712L17.6281 22.9708L17.3059 22.4178ZM15.9258 22.6376L16.1046 22.023L16.1044 22.023L15.9258 22.6376ZM14.7677 22.199L15.0389 21.6193L15.0389 21.6192L14.7677 22.199ZM14.0602 21.3226L14.656 21.089L14.656 21.0889L14.0602 21.3226ZM13.8759 20.4558L13.2368 20.4897L13.2368 20.4898L13.8759 20.4558ZM13.2561 20.1184L13.3995 20.7421L13.3998 20.742L13.2561 20.1184ZM12.9946 20.1754L13.1274 20.8015L13.1275 20.8015L12.9946 20.1754ZM12.6269 20.2578L12.4731 19.6365L12.471 19.637L12.6269 20.2578ZM12.3925 20.3138L12.2473 19.6905H12.2473L12.3925 20.3138ZM11.7287 20.5018L11.96 21.0985L11.9607 21.0983L11.7287 20.5018ZM9.78179 20.7285L9.76004 21.3681L9.76085 21.3682L9.78179 20.7285ZM8.54059 20.5283L8.39847 21.1523H8.39847L8.54059 20.5283ZM8.33288 20.4814L8.1938 21.1061L8.19422 21.1062L8.33288 20.4814ZM7.12652 19.0909L7.76389 19.0329L7.75605 18.9467L7.72559 18.8657L7.12652 19.0909ZM7.22829 16.2099L7.8291 16.4304L7.83787 16.4065L7.84472 16.382L7.22829 16.2099ZM7.81357 14.6157L8.40033 14.8712L8.40083 14.8701L7.81357 14.6157ZM8.0959 14.076L7.54004 13.7588L7.54004 13.7588L8.0959 14.076ZM8.29909 13.705L8.87084 13.9926L8.87088 13.9925L8.29909 13.705ZM9.26168 12.4222L8.79921 11.9797L8.79872 11.9803L9.26168 12.4222ZM10.0159 11.7846L10.4003 12.2963L10.4006 12.2961L10.0159 11.7846ZM10.2565 11.9345L10.8661 11.7396L10.8654 11.7375L10.2565 11.9345ZM10.5565 12.8486L9.95021 13.0535L9.95024 13.0536L10.5565 12.8486ZM11.0244 13.5135L10.7372 14.0855L10.738 14.0859L11.0244 13.5135ZM11.1099 13.5416L11.0317 12.9064L11.0317 12.9064L11.1099 13.5416ZM11.3534 13.1496L11.9279 13.4317L11.9417 13.4036L11.9526 13.3743L11.3534 13.1496ZM11.3534 13.1495L10.7559 12.9201L10.7542 12.9248L11.3534 13.1495ZM11.9017 11.9527L12.4457 12.2898L12.446 12.2893L11.9017 11.9527ZM12.3103 11.2291L11.747 10.9255V10.9255L12.3103 11.2291ZM12.6917 10.55L12.1453 10.2167L12.1449 10.2175L12.6917 10.55ZM13.5903 9.19811L13.0695 8.82619L13.0694 8.82632L13.5903 9.19811ZM14.2138 9.20636L14.7422 8.84531L14.7422 8.8452L14.2138 9.20636ZM14.5131 9.72374L15.0785 9.42401L15.0785 9.42401L14.5131 9.72374ZM14.7239 10.1036L15.2712 9.77178L15.271 9.77148L14.7239 10.1036ZM14.7853 10.2049L14.2379 10.5365L14.2379 10.5365L14.7853 10.2049ZM15.5517 11.4094L16.076 11.0424L16.0759 11.0422L15.5517 11.4094ZM16.8104 12.8052L16.4101 13.3047L16.4157 13.309L16.8104 12.8052ZM16.8344 12.8258L16.4057 13.3011L16.4057 13.3011L16.8344 12.8258ZM16.8703 12.8551L17.2237 12.3215L17.2227 12.3209L16.8703 12.8551ZM17.3582 12.6632L17.9798 12.8157L17.9798 12.8156L17.3582 12.6632ZM17.3791 12.5784L16.7576 12.4254L16.7576 12.4254L17.3791 12.5784ZM17.5956 11.4585L18.233 11.5153L18.2331 11.5146L17.5956 11.4585ZM17.9705 9.37747L18.5926 9.52757L18.5932 9.52502L17.9705 9.37747ZM17.9844 9.3099L18.613 9.43002L18.613 9.43001L17.9844 9.3099ZM18.0598 9.10996L18.4881 9.58545L18.4883 9.58528L18.0598 9.10996ZM18.4294 9.1321L17.992 9.59928L17.9921 9.5994L18.4294 9.1321ZM18.9035 9.55501L19.3238 9.07238L19.3238 9.07238L18.9035 9.55501ZM19.4274 10.025L19.8688 9.56151L19.8685 9.5612L19.4274 10.025ZM20.8703 11.4455L20.4161 11.8963L20.4162 11.8965L20.8703 11.4455ZM21.5079 12.1421L21.0208 12.5572L21.0215 12.558L21.5079 12.1421ZM21.877 12.6016L22.382 12.2085L22.382 12.2085L21.877 12.6016ZM22.0807 12.8608L21.5813 13.2611L21.5837 13.2641L22.0807 12.8608ZM22.209 12.9802L21.8715 13.524L21.8724 13.5245L22.209 12.9802ZM22.5276 12.8147L23.1554 12.9393L23.1555 12.9387L22.5276 12.8147ZM22.7516 11.7677L23.375 11.9128L23.3751 11.9124L22.7516 11.7677ZM23.1318 11.5831L22.8441 12.1548L22.8451 12.1553L23.1318 11.5831ZM23.3277 11.7296L23.7525 11.251L23.7524 11.2509L23.3277 11.7296ZM23.3329 11.7343L23.7588 11.2566L23.7578 11.2556L23.3329 11.7343ZM26.2877 7.98962C26.4171 8.14285 26.5344 8.27747 26.6387 8.3972L27.6038 7.55644C27.4992 7.4363 27.3879 7.30852 27.2656 7.16371L26.2877 7.98962ZM25.4086 7.32597C25.7505 7.52618 26.1059 7.75627 26.271 7.96903L27.2822 7.18431C26.9405 6.74392 26.3587 6.39903 26.0554 6.22141L25.4086 7.32597ZM24.9334 7.10021C25.1116 7.1688 25.1919 7.19892 25.4083 7.3258L26.0557 6.22159C25.7567 6.04629 25.6061 5.98758 25.3932 5.90563L24.9334 7.10021ZM24.7613 7.03309C24.8275 7.05945 24.8846 7.0814 24.9334 7.10021L25.3932 5.90563C25.3441 5.88675 25.2932 5.86715 25.2345 5.84378L24.7613 7.03309ZM24.3655 6.85855C24.4607 6.90394 24.5847 6.96306 24.7619 7.03335L25.2338 5.84352C25.0982 5.78974 25.006 5.74589 24.916 5.70299L24.3655 6.85855ZM23.9208 6.71309C24.0489 6.73562 24.121 6.75592 24.1719 6.77377C24.2261 6.79273 24.272 6.81401 24.3655 6.85855L24.916 5.703C24.7071 5.60345 24.5272 5.5201 24.1425 5.45244L23.9208 6.71309ZM23.4166 5.99287C23.3443 6.62877 23.3443 6.62877 23.3443 6.62877C23.3442 6.62877 23.3442 6.62877 23.3442 6.62876C23.3442 6.62876 23.3442 6.62876 23.3442 6.62876C23.3441 6.62876 23.3441 6.62876 23.3442 6.62876C23.3442 6.62876 23.3443 6.62877 23.3444 6.62879C23.3447 6.62882 23.3453 6.62889 23.3462 6.62899C23.3479 6.62919 23.3506 6.62951 23.3544 6.62995C23.3618 6.63083 23.3732 6.6322 23.3881 6.63403C23.4178 6.6377 23.4613 6.64323 23.5147 6.6505C23.6221 6.66508 23.7675 6.68636 23.9217 6.71325L24.1416 5.45229C23.9671 5.42185 23.805 5.39818 23.687 5.38215C23.6278 5.3741 23.5791 5.36791 23.5449 5.36368C23.5278 5.36156 23.5142 5.35994 23.5048 5.35882C23.5 5.35825 23.4963 5.35782 23.4936 5.35751C23.4923 5.35736 23.4912 5.35723 23.4904 5.35714C23.4901 5.3571 23.4897 5.35706 23.4895 5.35703C23.4893 5.35702 23.4892 5.35701 23.4891 5.357C23.4891 5.35699 23.4891 5.35699 23.489 5.35698C23.489 5.35698 23.489 5.35698 23.489 5.35698C23.4889 5.35697 23.4889 5.35697 23.4166 5.99287ZM22.4314 5.71551C22.6459 5.92385 22.7424 6.06366 22.7811 6.12946C22.8003 6.16212 22.805 6.17615 22.8031 6.17113C22.8022 6.16865 22.7996 6.16155 22.7964 6.14981C22.7948 6.14395 22.7931 6.13696 22.7913 6.12884C22.7904 6.12479 22.7894 6.12045 22.7885 6.11584C22.7881 6.11353 22.7876 6.11116 22.7872 6.10872C22.787 6.10749 22.7867 6.10625 22.7865 6.105C22.7864 6.10437 22.7863 6.10374 22.7862 6.1031C22.7861 6.10278 22.786 6.1023 22.786 6.10214C22.7859 6.10166 22.7858 6.10118 23.4166 5.99287C24.0474 5.88456 24.0473 5.88408 24.0472 5.88359C24.0472 5.88343 24.0471 5.88294 24.047 5.88262C24.0469 5.88196 24.0468 5.88131 24.0467 5.88065C24.0465 5.87933 24.0462 5.878 24.046 5.87665C24.0455 5.87396 24.0449 5.87121 24.0444 5.86841C24.0433 5.8628 24.0421 5.85697 24.0407 5.85093C24.038 5.83884 24.0348 5.82589 24.0311 5.81211C24.0235 5.78453 24.0137 5.75372 24.0009 5.71978C23.9753 5.65184 23.9381 5.57196 23.8844 5.48063C23.7773 5.29846 23.604 5.07001 23.323 4.79717L22.4314 5.71551ZM22.1743 5.50183C22.2835 5.58689 22.365 5.65118 22.4317 5.71589L23.3226 4.79679C23.1976 4.67565 23.06 4.56927 22.961 4.49208L22.1743 5.50183ZM21.9316 5.30407C22.0128 5.3763 22.103 5.44623 22.1743 5.50183L22.961 4.49208C22.8814 4.43014 22.8264 4.38694 22.7825 4.34788L21.9316 5.30407ZM21.7662 5.15164C21.813 5.19563 21.868 5.24752 21.9318 5.30424L22.7824 4.34771C22.7341 4.30476 22.6915 4.26471 22.6438 4.21979L21.7662 5.15164ZM21.4574 4.89024C21.5839 4.98047 21.6589 5.05058 21.7662 5.15164L22.6438 4.21979C22.5304 4.11304 22.4024 3.99198 22.2004 3.848L21.4574 4.89024ZM20.8232 4.50114C21.0373 4.62411 21.307 4.78264 21.4564 4.88956L22.2014 3.84869C21.9904 3.69765 21.6624 3.50702 21.4606 3.39114L20.8232 4.50114ZM20.6053 4.39249C20.7005 4.43708 20.7653 4.46782 20.8226 4.50085L21.4611 3.39144C21.349 3.32693 21.2347 3.27382 21.1482 3.23333L20.6053 4.39249ZM20.2052 4.18337C20.3514 4.27434 20.499 4.34268 20.6053 4.39249L21.1483 3.23334C21.0319 3.17882 20.9528 3.14102 20.8814 3.09659L20.2052 4.18337ZM19.605 3.90744C19.8084 3.97341 20.0918 4.1126 20.2044 4.1829L20.8822 3.09705C20.6859 2.97454 20.308 2.78976 19.9997 2.68984L19.605 3.90744ZM18.3715 3.705C18.7028 3.705 18.8925 3.72192 19.0468 3.75033C19.2058 3.77961 19.348 3.8243 19.6054 3.90756L19.9994 2.68972C19.7547 2.61056 19.5335 2.53843 19.2786 2.49149C19.019 2.44369 18.7443 2.425 18.3715 2.425V3.705ZM17.9095 3.67013C18.0323 3.6843 18.2046 3.705 18.3715 3.705V2.425C18.292 2.425 18.196 2.4147 18.0563 2.39858L17.9095 3.67013ZM17.7044 3.64902C17.7626 3.65327 17.8272 3.66062 17.9095 3.67013L18.0563 2.39858C17.9798 2.38973 17.8875 2.37897 17.7974 2.37241L17.7044 3.64902ZM16.7657 3.65145C16.9841 3.63924 17.5062 3.63442 17.7038 3.64898L17.7979 2.37245C17.5241 2.35227 16.9416 2.35961 16.6942 2.37345L16.7657 3.65145ZM16.11 3.68037C16.3242 3.67208 16.5443 3.66357 16.7649 3.6515L16.695 2.37341C16.4863 2.38483 16.2764 2.39297 16.0605 2.40132L16.11 3.68037ZM13.8775 3.92527C14.5795 3.74204 15.3044 3.71154 16.11 3.68037L16.0605 2.40132C15.2774 2.43163 14.4129 2.46263 13.5542 2.68677L13.8775 3.92527ZM12.6208 4.21222C13.0324 4.1264 13.4552 4.03553 13.8775 3.92527L13.5542 2.68678C13.1648 2.78844 12.7686 2.87389 12.3596 2.95917L12.6208 4.21222ZM10.8955 4.81915C11.4805 4.55169 12.0429 4.33227 12.6204 4.21232L12.36 2.95907C11.6455 3.1075 10.9826 3.37186 10.3633 3.65506L10.8955 4.81915ZM10.2792 5.10746C10.4874 5.00899 10.6913 4.91255 10.8956 4.81912L10.3632 3.65508C10.1502 3.7525 9.93883 3.85248 9.73188 3.95037L10.2792 5.10746ZM9.71646 5.37126C9.90593 5.28401 10.0943 5.19492 10.2792 5.10746L9.73188 3.95037C9.54597 4.0383 9.36358 4.12457 9.18107 4.20861L9.71646 5.37126ZM8.54818 5.90541C8.94439 5.72503 9.33083 5.5491 9.71679 5.37111L9.18074 4.20876C8.79811 4.38522 8.41452 4.55985 8.01782 4.74046L8.54818 5.90541ZM7.95072 6.17769C8.15338 6.08515 8.352 5.99473 8.54818 5.90541L8.01782 4.74046C7.82173 4.82973 7.62247 4.92045 7.41905 5.01333L7.95072 6.17769ZM8.84665 5.79559C8.60982 5.57748 8.36872 5.35544 8.11865 5.12493L7.25112 6.0661C7.50143 6.29682 7.74272 6.51904 7.97952 6.73713L8.84665 5.79559ZM9.39614 6.30174C9.21414 6.13404 9.03169 5.96601 8.84665 5.79559L7.97952 6.73713C8.16459 6.90757 8.34691 7.07548 8.52875 7.24304L9.39614 6.30174ZM9.06912 7.43252C9.12858 7.40272 9.1798 7.37709 9.23196 7.35288L8.69292 6.19191C8.62062 6.22548 8.55259 6.25963 8.49553 6.28823L9.06912 7.43252ZM8.62141 7.62784C8.79616 7.57073 8.95528 7.48959 9.06912 7.43252L8.49553 6.28823C8.36512 6.35361 8.292 6.38887 8.22382 6.41115L8.62141 7.62784ZM6.42916 8.95096C7.13136 8.35624 7.83194 7.88608 8.62159 7.62778L8.22364 6.41121C7.21039 6.74265 6.36311 7.32951 5.60191 7.97421L6.42916 8.95096ZM4.94012 10.5728C5.33278 9.96014 5.8431 9.44687 6.42894 8.95115L5.60212 7.97402C4.96753 8.511 4.35154 9.11902 3.86246 9.88213L4.94012 10.5728ZM4.76831 10.955C4.82169 10.7979 4.87811 10.6698 4.94047 10.5723L3.86212 9.88267C3.72174 10.1022 3.62611 10.338 3.55639 10.5431L4.76831 10.955ZM4.33991 10.3467C4.44623 10.3489 4.59541 10.398 4.69926 10.5421C4.80663 10.6911 4.80239 10.8533 4.76918 10.9524L3.55553 10.5456C3.47807 10.7768 3.49213 11.0564 3.66084 11.2905C3.82604 11.5198 4.0796 11.6217 4.31384 11.6264L4.33991 10.3467ZM4.81707 10.3442C4.64778 10.3473 4.49305 10.35 4.3404 10.3467L4.31335 11.6264C4.4951 11.6303 4.67479 11.627 4.83991 11.624L4.81707 10.3442ZM5.32463 10.3415C5.14963 10.3382 4.97656 10.3414 4.81706 10.3442L4.83991 11.624C5.00329 11.6211 5.15309 11.6185 5.30096 11.6213L5.32463 10.3415ZM5.92672 10.3745C5.7351 10.3605 5.53166 10.3455 5.32519 10.3415L5.30041 11.6213C5.46671 11.6245 5.63566 11.6367 5.83342 11.6511L5.92672 10.3745ZM6.18557 10.3926C6.09862 10.3871 6.01356 10.3809 5.92672 10.3745L5.83342 11.6511C5.91939 11.6574 6.01048 11.6641 6.10455 11.67L6.18557 10.3926ZM6.74833 11.2604C6.75279 11.2411 6.75803 11.2184 6.76614 11.1858L5.52398 10.8768C5.51316 10.9204 5.50595 10.9516 5.50107 10.9728L6.74833 11.2604ZM6.70703 11.4035C6.73166 11.3388 6.74518 11.2741 6.74833 11.2604L5.50107 10.9728C5.49925 10.9807 5.49817 10.9853 5.49728 10.9891C5.49642 10.9928 5.49637 10.9928 5.49682 10.9911C5.49798 10.9866 5.50241 10.9701 5.51068 10.9484L6.70703 11.4035ZM6.35041 12.3592C6.46998 12.0398 6.58997 11.7194 6.70896 11.3984L5.50875 10.9535C5.39062 11.2722 5.27137 11.5907 5.15168 11.9104L6.35041 12.3592ZM5.57456 14.4654C5.82487 13.7628 6.0866 13.0638 6.35041 12.3592L5.15168 11.9104C4.88847 12.6133 4.62312 13.322 4.36881 14.0358L5.57456 14.4654ZM5.02192 16.2201C5.16716 15.6369 5.36335 15.0583 5.57458 14.4653L4.36879 14.0358C4.15524 14.6353 3.94113 15.2632 3.77986 15.9107L5.02192 16.2201ZM4.72263 17.916C4.80185 17.3268 4.88742 16.761 5.02198 16.2198L3.7798 15.911C3.62715 16.525 3.53412 17.1499 3.45405 17.7454L4.72263 17.916ZM4.64124 19.166C4.65246 18.7273 4.6689 18.3141 4.72259 17.9163L3.45409 17.7451C3.39032 18.2176 3.37297 18.6912 3.36166 19.1333L4.64124 19.166ZM4.66106 19.7822C4.64744 19.5537 4.63615 19.3576 4.64123 19.1666L3.36168 19.1326C3.35488 19.3879 3.37026 19.6393 3.38332 19.8584L4.66106 19.7822ZM4.67703 20.0759C4.67259 19.9756 4.66665 19.876 4.66106 19.7822L3.38332 19.8584C3.38901 19.9538 3.39435 20.0435 3.39828 20.1324L4.67703 20.0759ZM4.89338 21.7633C4.73787 21.2515 4.70513 20.7068 4.67702 20.0757L3.39829 20.1326C3.42569 20.7479 3.45972 21.4478 3.66866 22.1354L4.89338 21.7633ZM4.93358 21.8804C4.91495 21.8287 4.90304 21.7953 4.89356 21.7639L3.66847 22.1348C3.68925 22.2034 3.71276 22.2682 3.7295 22.3146L4.93358 21.8804ZM5.00947 22.1118C4.98474 22.0212 4.95394 21.9368 4.93358 21.8803L3.7295 22.3146C3.75278 22.3792 3.76557 22.4156 3.77461 22.4488L5.00947 22.1118ZM5.07298 22.3782C5.05581 22.3011 5.0353 22.2085 5.01035 22.1151L3.77373 22.4455C3.79056 22.5085 3.80539 22.5747 3.82356 22.6563L5.07298 22.3782ZM5.15204 22.6866C5.12381 22.6036 5.10258 22.5111 5.07298 22.3782L3.82356 22.6563C3.85048 22.7772 3.88572 22.9385 3.94016 23.0986L5.15204 22.6866ZM5.16487 22.7243L5.15187 22.6861L3.94033 23.0991L3.95333 23.1372L5.16487 22.7243ZM5.66009 24.093C5.48163 23.653 5.32646 23.1983 5.16487 22.7243L3.95332 23.1372C4.11291 23.6054 4.27952 24.0948 4.47395 24.5741L5.66009 24.093ZM6.4345 25.8651C6.15771 25.2923 5.90624 24.6986 5.65991 24.0925L4.47413 24.5745C4.72418 25.1897 4.98759 25.8128 5.282 26.422L6.4345 25.8651ZM7.10372 27.0332C6.85568 26.6644 6.63088 26.2712 6.43442 25.865L5.28209 26.4222C5.50396 26.881 5.75866 27.3269 6.04159 27.7476L7.10372 27.0332ZM7.75883 27.822C7.50232 27.541 7.2817 27.2977 7.10359 27.033L6.04172 27.7478C6.28148 28.104 6.56789 28.416 6.81354 28.685L7.75883 27.822ZM7.79607 27.8628C7.78362 27.8491 7.77117 27.8355 7.75884 27.822L6.81352 28.685C6.82593 28.6986 6.8382 28.712 6.85045 28.7255L7.79607 27.8628ZM8.67329 28.7778C8.3704 28.4696 8.07718 28.171 7.79613 27.8628L6.85039 28.7254C7.15013 29.054 7.46012 29.3694 7.76025 29.6749L8.67329 28.7778ZM8.81155 28.9186C8.7654 28.8716 8.71923 28.8246 8.67329 28.7778L7.76025 29.6749C7.80625 29.7217 7.85202 29.7683 7.89772 29.8149L8.81155 28.9186ZM8.09567 28.9728C8.10506 28.9587 8.19233 28.8312 8.39156 28.7971C8.6204 28.758 8.77067 28.8767 8.81302 28.9201L7.89626 29.8134C8.03635 29.9572 8.28517 30.1139 8.60734 30.0588C8.89989 30.0088 9.07525 29.8113 9.16147 29.6817L8.09567 28.9728ZM8.10236 28.9628L8.09561 28.9729L9.16153 29.6816L9.16829 29.6714L8.10236 28.9628ZM8.24206 28.7389C8.2081 28.8028 8.16544 28.8679 8.10237 28.9627L9.16828 29.6714C9.22549 29.5854 9.30388 29.4684 9.37228 29.3397L8.24206 28.7389ZM9.46379 28.5172C9.37295 28.4365 9.13956 28.2576 8.81164 28.31C8.4749 28.3638 8.30744 28.6164 8.24253 28.738L9.37181 29.3406C9.37086 29.3424 9.2734 29.5325 9.01348 29.574C8.88862 29.5939 8.785 29.5672 8.71898 29.5387C8.65772 29.5123 8.62242 29.4819 8.61315 29.4737L9.46379 28.5172ZM9.57815 28.6259C9.55081 28.5988 9.50898 28.5573 9.46289 28.5164L8.61404 29.4745C8.62964 29.4883 8.6468 29.505 8.67837 29.5362L9.57815 28.6259ZM9.63752 28.6832C9.62245 28.6695 9.60609 28.6535 9.57815 28.6259L8.67836 29.5362C8.70291 29.5605 8.73897 29.5963 8.77811 29.6317L9.63752 28.6832ZM9.88242 28.9036C9.79956 28.8293 9.71847 28.7567 9.63804 28.6836L8.77759 29.6313C8.86167 29.7076 8.94591 29.7831 9.02824 29.8569L9.88242 28.9036ZM10.0552 29.0587C9.99735 29.0065 9.93946 28.9547 9.88242 28.9036L9.02824 29.8569C9.08554 29.9082 9.14191 29.9587 9.19796 30.0093L10.0552 29.0587ZM9.23099 29.232C9.23158 29.2305 9.23405 29.2243 9.23886 29.2147C9.24356 29.2053 9.2522 29.1892 9.26587 29.1694C9.28978 29.1346 9.3521 29.0546 9.46924 28.9975C9.60388 28.9318 9.75015 28.926 9.8735 28.9618C9.97859 28.9923 10.0391 29.0442 10.0548 29.0583L9.19833 30.0096C9.32266 30.1215 9.64586 30.3355 10.0305 30.1479C10.18 30.0749 10.2709 29.9669 10.3203 29.895C10.3712 29.8211 10.4034 29.7486 10.4236 29.6969L9.23099 29.232ZM9.28397 29.0849C9.26113 29.1508 9.24676 29.1919 9.23169 29.2302L10.4229 29.6987C10.4493 29.6316 10.4723 29.5649 10.4933 29.5043L9.28397 29.0849ZM9.31936 28.9837C9.30612 29.0211 9.29432 29.0551 9.28397 29.0849L10.4933 29.5043C10.5038 29.4741 10.5143 29.4439 10.5259 29.4111L9.31936 28.9837ZM10.4617 28.8427C10.4459 28.8243 10.4274 28.8026 10.4063 28.7783L9.43889 29.6165C9.45705 29.6374 9.4732 29.6563 9.48914 29.6749L10.4617 28.8427ZM10.5353 28.9266C10.5179 28.9082 10.4999 28.8874 10.4617 28.8428L9.48913 29.6749C9.52274 29.7142 9.56157 29.7598 9.60439 29.8052L10.5353 28.9266ZM10.8941 29.312C10.7759 29.1847 10.6568 29.0565 10.5372 28.9286L9.6025 29.8032C9.72031 29.9291 9.83786 30.0556 9.95635 30.1831L10.8941 29.312ZM11.8581 30.3316C11.5343 30.001 11.2175 29.66 10.8941 29.312L9.95635 30.1831C10.2778 30.5291 10.606 30.8826 10.9437 31.2273L11.8581 30.3316ZM12.3227 30.7268C12.1351 30.5799 11.9859 30.4619 11.8578 30.3313L10.944 31.2276C11.1406 31.428 11.3571 31.5964 11.5335 31.7346L12.3227 30.7268ZM12.4353 30.8153C12.3973 30.7852 12.3592 30.7554 12.3227 30.7268L11.5336 31.7346C11.5705 31.7635 11.6059 31.7912 11.6408 31.8189L12.4353 30.8153ZM11.8756 30.8298C12.0196 30.7368 12.1555 30.7345 12.2049 30.736C12.264 30.7379 12.3057 30.7494 12.3238 30.755C12.3563 30.7651 12.3909 30.7805 12.4328 30.8133L11.6433 31.8209C11.7351 31.8927 11.8425 31.946 11.9451 31.9777C11.9982 31.9942 12.0743 32.0125 12.1639 32.0154C12.2438 32.018 12.4063 32.0107 12.5698 31.9052L11.8756 30.8298ZM11.6926 31.0479C11.6928 31.0466 11.6932 31.045 11.694 31.0423C11.6947 31.04 11.6971 31.0324 11.7025 31.0204C11.7074 31.0095 11.7191 30.9854 11.7411 30.9553C11.7622 30.9264 11.8047 30.8755 11.876 30.8295L12.5694 31.9054C12.7509 31.7885 12.8357 31.6213 12.8695 31.5463C12.9112 31.4537 12.9354 31.3628 12.9491 31.2918L11.6926 31.0479ZM11.6868 31.0456C11.6873 31.0591 11.6876 31.0672 11.6878 31.0746C11.688 31.0815 11.6879 31.0845 11.6879 31.0851C11.6879 31.0856 11.688 31.0822 11.6885 31.0761C11.6891 31.0699 11.6902 31.0601 11.6927 31.0475L12.9491 31.2922C12.9752 31.1578 12.9672 31.031 12.9657 30.9946L11.6868 31.0456ZM11.6889 30.8509C11.6815 30.9358 11.6855 31.015 11.6868 31.0456L12.9657 30.9946C12.9653 30.9847 12.9651 30.9777 12.9649 30.9711C12.9647 30.9648 12.9646 30.9607 12.9645 30.9578C12.9645 30.9516 12.9648 30.9544 12.964 30.9625L11.6889 30.8509ZM11.7379 30.6004C11.7279 30.6374 11.6997 30.7363 11.6893 30.8469L12.9637 30.9665C12.9626 30.9783 12.9611 30.9832 12.9626 30.9768C12.9633 30.9737 12.9644 30.969 12.9663 30.9616C12.9683 30.9538 12.9705 30.9455 12.9738 30.9334L11.7379 30.6004ZM11.7486 30.5591C11.7467 30.5675 11.744 30.5778 11.7379 30.6004L12.9738 30.9334C12.9789 30.9143 12.9875 30.883 12.9952 30.8496L11.7486 30.5591ZM12.6833 30.1428C12.6619 30.1335 12.6564 30.131 12.6533 30.1295L12.0906 31.2792C12.1247 31.2959 12.1575 31.31 12.1743 31.3173L12.6833 30.1428ZM12.9357 30.2833C12.8281 30.2022 12.7133 30.1558 12.6833 30.1428L12.1743 31.3173C12.1857 31.3222 12.1922 31.325 12.1978 31.3275C12.203 31.3299 12.2045 31.3307 12.2039 31.3304C12.2032 31.33 12.1991 31.3279 12.1927 31.3241C12.1863 31.3202 12.1771 31.3143 12.1661 31.3061L12.9357 30.2833ZM13.4182 30.6979C13.281 30.5718 13.118 30.4212 12.9371 30.2843L12.1647 31.305C12.2885 31.3986 12.4069 31.5069 12.5518 31.6401L13.4182 30.6979ZM13.9924 31.1596C13.8054 31.0508 13.6403 30.9022 13.4182 30.6979L12.5518 31.6401C12.7577 31.8295 13.0219 32.0757 13.3484 32.2658L13.9924 31.1596ZM15.4921 31.9243C14.9908 31.734 14.515 31.4642 13.9927 31.1598L13.3481 32.2656C13.8645 32.5666 14.4248 32.8883 15.0378 33.121L15.4921 31.9243ZM16.7493 32.3711C16.3323 32.239 15.9167 32.0862 15.4929 31.9246L15.037 33.1207C15.4676 33.2848 15.9104 33.4481 16.363 33.5914L16.7493 32.3711ZM16.6456 32.3718C16.6584 32.3657 16.6669 32.3632 16.6707 32.3622C16.6747 32.3611 16.6777 32.3606 16.6806 32.3604C16.6834 32.3601 16.6894 32.3597 16.6991 32.3606C16.7083 32.3614 16.7263 32.3637 16.7508 32.3715L16.3616 33.5909C16.6479 33.6823 16.9642 33.6379 17.1964 33.5273L16.6456 32.3718ZM17.3281 32.0289C17.0943 32.1493 16.8704 32.2645 16.6452 32.372L17.1968 33.5271C17.4421 33.4099 17.683 33.2859 17.9139 33.167L17.3281 32.0289ZM18.2904 31.5551C17.9575 31.7048 17.6341 31.8715 17.3281 32.0289L17.9139 33.167C18.225 33.0069 18.5185 32.856 18.8155 32.7224L18.2904 31.5551ZM20.1174 30.354C19.5963 30.8675 18.9823 31.2438 18.2904 31.5551L18.8155 32.7224C19.6007 32.3692 20.356 31.916 21.0159 31.2657L20.1174 30.354ZM20.2941 30.1583C20.2212 30.2429 20.1693 30.3027 20.1166 30.3548L21.0167 31.2649C21.1121 31.1705 21.1973 31.071 21.2642 30.9933L20.2941 30.1583ZM20.4059 30.0301C20.3658 30.0749 20.3276 30.1193 20.2941 30.1583L21.2642 30.9933C21.2989 30.953 21.3296 30.9174 21.3606 30.8827L20.4059 30.0301ZM21.267 29.9424C21.255 29.9347 21.2438 29.9275 21.2326 29.9201L20.5338 30.9926C20.5473 31.0013 20.5603 31.0097 20.572 31.0173L21.267 29.9424ZM21.3778 30.0157C21.3377 29.9881 21.2985 29.9628 21.2669 29.9424L20.572 31.0173C20.6063 31.0395 20.6296 31.0546 20.6517 31.0698L21.3778 30.0157ZM21.278 30.0169C21.2536 30.0529 21.2342 30.0788 21.2191 30.0974C21.2038 30.116 21.196 30.1234 21.1953 30.124C21.195 30.1244 21.2367 30.0864 21.3177 30.0688C21.3565 30.0604 21.3925 30.0595 21.4221 30.0624C21.4504 30.0651 21.4679 30.0709 21.472 30.0724C21.4756 30.0737 21.4695 30.0719 21.4518 30.0621C21.4343 30.0525 21.4096 30.0375 21.3762 30.0146L20.6534 31.071C20.8492 31.205 21.1851 31.4071 21.5884 31.3199C21.9772 31.2357 22.2071 30.9268 22.3364 30.7368L21.278 30.0169ZM21.6453 29.582C21.5444 29.6883 21.4002 29.8382 21.2789 30.0157L22.3355 30.7381C22.3893 30.6594 22.4605 30.5824 22.5736 30.4632L21.6453 29.582ZM21.7114 29.512C21.6903 29.5345 21.6688 29.5572 21.6453 29.582L22.5736 30.4632C22.5966 30.4391 22.6215 30.4128 22.6464 30.3862L21.7114 29.512ZM21.9566 29.2647C21.8822 29.3374 21.7952 29.4222 21.711 29.5125L22.6468 30.3858C22.7074 30.3208 22.773 30.2566 22.851 30.1804L21.9566 29.2647ZM22.3017 28.89C22.2203 29.0048 22.1136 29.1114 21.9566 29.2647L22.851 30.1804C22.9935 30.0412 23.1861 29.8556 23.3456 29.6308L22.3017 28.89ZM22.586 28.3781C22.4792 28.5938 22.3983 28.7541 22.3019 28.8898L23.3455 29.631C23.5105 29.3986 23.6346 29.145 23.733 28.9463L22.586 28.3781ZM22.7464 28.0639C22.6881 28.172 22.6342 28.281 22.586 28.3781L23.733 28.9463C23.7829 28.8457 23.8269 28.7569 23.8728 28.672L22.7464 28.0639ZM24.1592 27.7312C24.0376 27.6478 23.7446 27.4551 23.3814 27.533C23.0039 27.6139 22.8217 27.9248 22.7467 28.0634L23.8725 28.6725C23.8933 28.634 23.8934 28.6431 23.8689 28.6682C23.8386 28.6995 23.766 28.7596 23.6499 28.7845C23.5364 28.8088 23.4508 28.7845 23.4199 28.7732C23.3945 28.7639 23.3959 28.7598 23.4351 28.7867L24.1592 27.7312ZM24.1626 27.7336L24.1618 27.733L23.4324 28.7849L23.4332 28.7854L24.1626 27.7336ZM24.7766 28.1295C24.5779 28.0187 24.3832 27.8853 24.1606 27.7322L23.4352 28.7868C23.649 28.9338 23.893 29.1023 24.1531 29.2474L24.7766 28.1295ZM24.6451 28.1424C24.6182 28.1754 24.6074 28.1819 24.6138 28.1773C24.6228 28.1708 24.6511 28.1532 24.696 28.1435C24.7418 28.1337 24.779 28.1376 24.7981 28.1419C24.8134 28.1453 24.8075 28.1467 24.776 28.1291L24.1538 29.2477C24.3656 29.3655 24.6469 29.4634 24.9652 29.3949C25.2764 29.3279 25.4921 29.1295 25.6378 28.9504L24.6451 28.1424ZM24.9082 27.7693C24.8327 27.8964 24.7437 28.021 24.6448 28.1428L25.6382 28.95C25.7693 28.7887 25.8959 28.6128 26.0087 28.4229L24.9082 27.7693ZM25.8085 26.2106C25.5144 26.7335 25.213 27.2532 24.9074 27.7706L26.0095 28.4216C26.3185 27.8984 26.6246 27.3707 26.9241 26.8383L25.8085 26.2106ZM25.932 25.9573C25.8834 26.0639 25.8479 26.1409 25.8089 26.2101L26.9238 26.8388C26.9943 26.7138 27.052 26.5862 27.0967 26.4883L25.932 25.9573ZM26.1361 25.5531C26.0498 25.6973 25.9825 25.8466 25.932 25.9573L27.0967 26.4883C27.1524 26.3662 27.1911 26.2829 27.2345 26.2104L26.1361 25.5531ZM26.1755 25.4876C26.1626 25.5091 26.1497 25.5306 26.1367 25.5521L27.2339 26.2113C27.2468 26.1899 27.2597 26.1685 27.2726 26.147L26.1755 25.4876ZM27.2248 23.4035C26.9914 24.1249 26.6067 24.7702 26.1755 25.4876L27.2726 26.147C27.6919 25.4493 28.1568 24.6811 28.4427 23.7975L27.2248 23.4035ZM27.526 22.5685C27.4257 22.8328 27.3187 23.1141 27.225 23.403L28.4425 23.798C28.5249 23.5441 28.6205 23.2921 28.7226 23.0229L27.526 22.5685ZM28.0241 20.85C27.959 21.4192 27.7603 21.9514 27.526 22.5685L28.7226 23.0229C28.9482 22.4287 29.2096 21.7493 29.2958 20.9955L28.0241 20.85ZM28.1574 19.9049C28.1102 20.2086 28.0605 20.5279 28.024 20.851L29.2959 20.9945C29.3289 20.7025 29.3743 20.4096 29.4222 20.1014L28.1574 19.9049ZM28.23 19.4253C28.2073 19.5834 28.1827 19.7419 28.1574 19.9049L29.4222 20.1014C29.4473 19.9397 29.4731 19.7737 29.497 19.607L28.23 19.4253ZM28.2343 19.3957L28.2302 19.4236L29.4968 19.6087L29.5009 19.5808L28.2343 19.3957ZM28.3072 18.8411C28.2893 19.0192 28.2631 19.1989 28.2343 19.3956L29.5009 19.5809C29.5289 19.3889 29.5595 19.1807 29.5808 18.9691L28.3072 18.8411ZM28.3422 18.2994C28.3408 18.4698 28.3264 18.6462 28.3071 18.8423L29.5809 18.968C29.601 18.7645 29.6203 18.5405 29.6222 18.3097L28.3422 18.2994ZM28.3355 18.2984C28.3387 18.312 28.3407 18.3204 28.3424 18.3279C28.3439 18.335 28.3445 18.3381 28.3446 18.3388C28.3447 18.3394 28.3441 18.336 28.3435 18.3297C28.3428 18.3233 28.3421 18.313 28.3422 18.2996L29.6222 18.3094C29.6232 18.167 29.5894 18.0387 29.5807 18.0021L28.3355 18.2984ZM28.2948 17.9634C28.2888 18.1201 28.3266 18.2613 28.3355 18.2984L29.5807 18.0021C29.579 17.9951 29.5777 17.9896 29.5765 17.9843C29.5753 17.9791 29.5743 17.975 29.5736 17.9715C29.572 17.9644 29.5716 17.9619 29.5716 17.962C29.5716 17.9623 29.5725 17.9672 29.5731 17.9754C29.5738 17.9837 29.5745 17.9964 29.5738 18.0125L28.2948 17.9634ZM28.3272 17.3469C28.3151 17.5463 28.3025 17.7546 28.2948 17.9643L29.5739 18.0116C29.581 17.8194 29.5926 17.6263 29.6049 17.4243L28.3272 17.3469ZM28.3594 16.7255C28.3525 16.9285 28.3402 17.1328 28.3272 17.3469L29.6049 17.4243C29.6177 17.213 29.6311 16.9918 29.6387 16.769L28.3594 16.7255ZM28.3476 16.4712C28.3568 16.5865 28.3618 16.6589 28.3595 16.7248L29.6387 16.7696C29.644 16.6185 29.6318 16.4731 29.6237 16.3704L28.3476 16.4712ZM28.3313 16.1627C28.332 16.2772 28.3411 16.3878 28.3476 16.4712L29.6237 16.3704C29.6165 16.2792 29.6117 16.215 29.6113 16.1548L28.3313 16.1627ZM28.0703 14.1325C28.2718 14.7611 28.3271 15.4323 28.3313 16.1625L29.6113 16.155C29.6067 15.3758 29.5493 14.553 29.2891 13.7416L28.0703 14.1325ZM27.7418 13.1256C27.8529 13.4629 27.963 13.7971 28.0701 14.132L29.2893 13.742C29.1802 13.401 29.0684 13.0616 28.9576 12.7252L27.7418 13.1256ZM27.5285 12.4753C27.5993 12.6928 27.6708 12.9099 27.7418 13.1256L28.9576 12.7252C28.8864 12.5091 28.8156 12.2942 28.7456 12.0792L27.5285 12.4753ZM27.381 12.0092C27.4293 12.1646 27.4778 12.3204 27.5288 12.4762L28.7453 12.0783C28.6977 11.9327 28.652 11.7858 28.6031 11.6288L27.381 12.0092ZM27.2995 11.7486C27.3273 11.8367 27.3541 11.923 27.381 12.0092L28.6031 11.6288C28.5764 11.543 28.5488 11.4543 28.5201 11.3633L27.2995 11.7486ZM28.773 11.1501C28.6363 11.0681 28.2675 10.8224 27.7729 10.9307L28.0467 12.1811C28.0391 12.1828 28.0265 12.1841 28.0117 12.183C27.9977 12.1819 27.9898 12.1791 27.9905 12.1793C27.9924 12.18 28.0022 12.1836 28.0241 12.1952C28.0476 12.2077 28.073 12.2228 28.1149 12.2479L28.773 11.1501ZM28.837 11.2103C28.8532 11.2093 28.868 11.2106 28.8794 11.2128C28.89 11.2149 28.894 11.2169 28.8896 11.2151C28.8845 11.2131 28.8735 11.2081 28.8531 11.1969C28.8315 11.1851 28.8084 11.1713 28.773 11.1501L28.1149 12.2479C28.2216 12.3119 28.5221 12.5121 28.9158 12.4878L28.837 11.2103ZM28.2291 11.836C28.2325 11.8643 28.2374 11.905 28.2439 11.9471L29.5088 11.751C29.5061 11.7334 29.5037 11.7138 29.4998 11.6818L28.2291 11.836ZM28.216 11.7442C28.2152 11.7417 28.2167 11.746 28.2193 11.7624C28.2222 11.7801 28.2248 11.8003 28.2291 11.8359L29.4998 11.6818C29.4929 11.6251 29.4798 11.5044 29.4435 11.3815L28.216 11.7442ZM28.101 11.3894C28.1436 11.5162 28.1822 11.6315 28.2166 11.7464L29.4429 11.3794C29.4014 11.2408 29.3559 11.1055 29.3144 10.982L28.101 11.3894ZM28.014 11.1259C28.0429 11.2163 28.0728 11.3055 28.101 11.3894L29.3144 10.982C29.2857 10.8965 29.2589 10.8165 29.2335 10.737L28.014 11.1259ZM27.9515 10.9157C27.9694 10.9782 27.9904 11.052 28.0142 11.1264L29.2333 10.7364C29.2166 10.684 29.2009 10.6295 29.1821 10.5637L27.9515 10.9157ZM27.8689 10.6526C27.8966 10.7253 27.9198 10.8049 27.9515 10.9157L29.1821 10.5637C29.153 10.462 29.1155 10.3292 29.0649 10.1966L27.8689 10.6526ZM27.7081 10.2587C27.7665 10.3977 27.8202 10.5256 27.8693 10.6536L29.0645 10.1956C29.0069 10.0453 28.9451 9.89848 28.888 9.76266L27.7081 10.2587ZM27.4748 9.67206C27.5483 9.87903 27.6324 10.0786 27.7081 10.2587L28.888 9.76266C28.81 9.57698 28.7403 9.4108 28.681 9.24381L27.4748 9.67206ZM26.6387 8.3972C27.0927 8.91839 27.2895 9.14951 27.4747 9.67182L28.6811 9.24406C28.4084 8.47489 28.0662 8.08723 27.6038 7.55645L26.6387 8.3972ZM26.398 16.2226C26.1943 15.2847 25.9024 14.3721 25.439 13.5033L24.3096 14.1056C24.7023 14.8419 24.9606 15.6351 25.1471 16.4942L26.398 16.2226ZM26.0902 20.6916C26.4194 20.2641 26.576 19.7443 26.6472 19.2564C26.719 18.7638 26.7103 18.2567 26.6721 17.8118C26.6336 17.3643 26.5635 16.9613 26.5034 16.6711C26.4733 16.5254 26.4453 16.4066 26.4246 16.3231C26.4142 16.2813 26.4056 16.2482 26.3995 16.2249C26.3964 16.2132 26.3939 16.204 26.392 16.1974C26.3911 16.194 26.3904 16.1913 26.3898 16.1893C26.3895 16.1883 26.3893 16.1874 26.3891 16.1867C26.389 16.1864 26.3889 16.1861 26.3889 16.1858C26.3888 16.1857 26.3888 16.1855 26.3887 16.1855C26.3887 16.1853 26.3887 16.1852 25.7726 16.3584C25.1565 16.5317 25.1564 16.5316 25.1564 16.5314C25.1564 16.5314 25.1564 16.5313 25.1563 16.5313C25.1563 16.5312 25.1563 16.5311 25.1563 16.5311C25.1563 16.5311 25.1563 16.5312 25.1564 16.5315C25.1566 16.532 25.1569 16.5333 25.1574 16.5351C25.1584 16.5387 25.1601 16.5449 25.1623 16.5533C25.1668 16.5703 25.1737 16.5966 25.1823 16.6313C25.1995 16.7006 25.2236 16.803 25.25 16.9305C25.303 17.1866 25.3638 17.5377 25.3968 17.9215C25.43 18.3079 25.4334 18.7093 25.3806 19.0717C25.327 19.4389 25.2223 19.7207 25.076 19.9107L26.0902 20.6916ZM24.9008 21.4371C25.3279 21.307 25.7204 21.0871 26.0478 20.7412L25.1184 19.8612C24.9639 20.0243 24.7732 20.1379 24.5277 20.2127L24.9008 21.4371ZM23.4801 21.636C23.9373 21.6331 24.4168 21.5849 24.9011 21.437L24.5274 20.2128C24.1951 20.3142 23.846 20.3537 23.4721 20.356L23.4801 21.636ZM22.7623 21.5667C22.9589 21.5969 23.2153 21.6378 23.4805 21.636L23.4717 20.356C23.3263 20.357 23.1717 20.3346 22.957 20.3016L22.7623 21.5667ZM22.4503 21.5236C22.5465 21.5336 22.6454 21.5487 22.7623 21.5667L22.957 20.3016C22.8454 20.2844 22.7157 20.2643 22.5832 20.2505L22.4503 21.5236ZM22.2619 21.5149C22.3464 21.5169 22.4011 21.5185 22.451 21.5236L22.5825 20.2504C22.4734 20.2391 22.3677 20.237 22.2918 20.2352L22.2619 21.5149ZM21.8934 21.4901C22.0341 21.5103 22.1704 21.5127 22.2619 21.5149L22.2918 20.2352C22.1873 20.2328 22.1276 20.2306 22.0749 20.2231L21.8934 21.4901ZM20.7519 21.3021C21.1246 21.3686 21.5075 21.4356 21.8945 21.4903L22.0738 20.2229C21.7118 20.1717 21.3489 20.1084 20.9767 20.042L20.7519 21.3021ZM20.1081 21.1801C20.3183 21.2211 20.5344 21.2633 20.752 21.3021L20.9766 20.042C20.771 20.0053 20.5652 19.9652 20.3533 19.9238L20.1081 21.1801ZM19.7171 21.1047C19.8466 21.1291 19.9762 21.1544 20.1081 21.1801L20.3533 19.9238C20.222 19.8982 20.0884 19.8721 19.9543 19.8468L19.7171 21.1047ZM19.5623 21.0718C19.6046 21.0813 19.6597 21.0938 19.7166 21.1046L19.9548 19.8469C19.9232 19.841 19.8897 19.8335 19.8437 19.8231L19.5623 21.0718ZM19.3715 21.0376C19.3995 21.0377 19.4402 21.0443 19.5623 21.0718L19.8437 19.8231C19.7472 19.8014 19.5695 19.7587 19.3788 19.7576L19.3715 21.0376ZM19.0503 21.0183C19.1349 21.026 19.2513 21.0369 19.3714 21.0376L19.3789 19.7576C19.322 19.7573 19.2597 19.752 19.1656 19.7435L19.0503 21.0183ZM18.687 21.0398C18.7101 21.0198 18.7262 21.0127 18.7623 21.0079C18.8209 21.0002 18.8933 21.0041 19.0503 21.0183L19.1656 19.7435C18.9057 19.72 18.3443 19.6456 17.8517 20.0698L18.687 21.0398ZM18.7044 20.9382C18.7044 20.9369 18.7048 20.9505 18.6993 20.9735C18.6935 20.9977 18.6838 21.022 18.6715 21.0433C18.6601 21.0631 18.6507 21.073 18.6517 21.0719C18.6537 21.0697 18.6624 21.0608 18.686 21.0406L17.8527 20.069C17.7751 20.1355 17.6543 20.2449 17.5626 20.404C17.4613 20.5796 17.4206 20.7692 17.4247 20.9653L18.7044 20.9382ZM17.6281 22.9708C18.3872 22.5286 18.7211 21.7686 18.7045 20.9389L17.4247 20.9646C17.4338 21.4168 17.2713 21.6973 16.9838 21.8648L17.6281 22.9708ZM15.747 23.2521C16.4429 23.4545 17.1037 23.2755 17.6275 22.9712L16.9844 21.8645C16.6666 22.0491 16.3701 22.1003 16.1046 22.023L15.747 23.2521ZM14.4965 22.7787C14.8984 22.9667 15.3187 23.1277 15.7473 23.2522L16.1044 22.023C15.7437 21.9182 15.3852 21.7813 15.0389 21.6193L14.4965 22.7787ZM13.4643 21.5562C13.6324 21.9848 13.9154 22.5068 14.4966 22.7787L15.0389 21.6192C14.9088 21.5584 14.7856 21.4195 14.656 21.089L13.4643 21.5562ZM13.2368 20.4898C13.2563 20.8552 13.3272 21.2068 13.4644 21.5563L14.656 21.0889C14.5726 20.8765 14.5277 20.6609 14.515 20.4218L13.2368 20.4898ZM13.3998 20.742C13.3766 20.7474 13.3714 20.7432 13.3655 20.74C13.3592 20.7367 13.3349 20.7227 13.307 20.6868C13.2773 20.6484 13.2417 20.5809 13.2368 20.4897L14.515 20.4219C14.4925 19.9981 14.1977 19.7328 13.9662 19.6097C13.7232 19.4805 13.4143 19.4251 13.1123 19.4947L13.3998 20.742ZM13.1275 20.8015C13.2138 20.7831 13.3063 20.7635 13.3995 20.7421L13.1126 19.4946C13.0317 19.5132 12.9497 19.5307 12.8616 19.5494L13.1275 20.8015ZM12.7807 20.879C12.8907 20.8518 13.0029 20.8279 13.1274 20.8015L12.8617 19.5494C12.7406 19.5751 12.6073 19.6033 12.4731 19.6365L12.7807 20.879ZM12.5377 20.9371C12.6151 20.9191 12.6988 20.8996 12.7828 20.8785L12.471 19.637C12.3995 19.655 12.3266 19.672 12.2473 19.6905L12.5377 20.9371ZM11.9607 21.0983C12.1255 21.0342 12.3055 20.9912 12.5377 20.9371L12.2473 19.6905C12.0304 19.741 11.7607 19.8027 11.4967 19.9053L11.9607 21.0983ZM9.76085 21.3682C10.4264 21.3899 11.1921 21.3963 11.96 21.0985L11.4974 19.9051C10.995 20.0998 10.4639 20.1105 9.80273 20.0889L9.76085 21.3682ZM8.39847 21.1523C8.79683 21.2431 9.26351 21.3513 9.76004 21.3681L9.80355 20.0889C9.44864 20.0768 9.09974 19.9993 8.6827 19.9043L8.39847 21.1523ZM8.19422 21.1062C8.26149 21.1211 8.32896 21.1365 8.39847 21.1523L8.6827 19.9043C8.61379 19.8886 8.54285 19.8724 8.47153 19.8566L8.19422 21.1062ZM6.48915 19.1488C6.53316 19.6328 6.76041 20.0715 7.05324 20.4032C7.3447 20.7333 7.74428 21.006 8.1938 21.1061L8.47195 19.8567C8.3382 19.8269 8.16397 19.7273 8.01275 19.556C7.8629 19.3863 7.77861 19.1947 7.76389 19.0329L6.48915 19.1488ZM6.62748 15.9894C6.29545 16.894 6.26618 17.7127 6.32059 18.3068C6.34781 18.6039 6.39611 18.8468 6.43903 19.0194C6.46052 19.1058 6.48076 19.175 6.49653 19.225C6.50442 19.25 6.51121 19.2703 6.51649 19.2855C6.51913 19.2931 6.52139 19.2995 6.52324 19.3046C6.52416 19.3072 6.52497 19.3094 6.52567 19.3113C6.52603 19.3122 6.52635 19.3131 6.52664 19.3139C6.52679 19.3143 6.52693 19.3147 6.52707 19.315C6.52713 19.3152 6.52723 19.3155 6.52726 19.3156C6.52735 19.3158 6.52744 19.316 7.12652 19.0909C7.72559 18.8657 7.72568 18.8659 7.72577 18.8661C7.72579 18.8662 7.72588 18.8664 7.72593 18.8666C7.72603 18.8668 7.72613 18.8671 7.72622 18.8673C7.72639 18.8678 7.72654 18.8682 7.72667 18.8686C7.72691 18.8692 7.72704 18.8696 7.72706 18.8696C7.72711 18.8698 7.72673 18.8687 7.72598 18.8665C7.72446 18.8622 7.72143 18.8532 7.71724 18.8399C7.70885 18.8134 7.69589 18.7696 7.6812 18.7105C7.65175 18.5921 7.61575 18.4138 7.59526 18.19C7.55423 17.7422 7.57585 17.1204 7.8291 16.4304L6.62748 15.9894ZM7.2268 14.3601C6.99577 14.8906 6.77751 15.4445 6.61186 16.0378L7.84472 16.382C7.988 15.8688 8.18084 15.3752 8.40033 14.8712L7.2268 14.3601ZM7.54004 13.7588C7.44214 13.9303 7.3234 14.1371 7.2263 14.3613L8.40083 14.8701C8.46531 14.7212 8.548 14.575 8.65176 14.3932L7.54004 13.7588ZM7.72734 13.4174C7.67276 13.5259 7.6113 13.6339 7.54004 13.7588L8.65176 14.3932C8.72024 14.2732 8.79863 14.1361 8.87084 13.9926L7.72734 13.4174ZM8.79872 11.9803C8.4193 12.3778 8.01817 12.839 7.72729 13.4175L8.87088 13.9925C9.07477 13.587 9.36954 13.2361 9.72464 12.8641L8.79872 11.9803ZM9.6315 11.273C9.37217 11.4678 9.06811 11.6987 8.79921 11.9797L9.72414 12.8646C9.9114 12.6688 10.1359 12.495 10.4003 12.2963L9.6315 11.273ZM10.8654 11.7375C10.8465 11.6791 10.7785 11.4579 10.5965 11.2958C10.4814 11.1933 10.3068 11.1019 10.087 11.1078C9.88385 11.1132 9.72847 11.2 9.6312 11.2732L10.4006 12.2961C10.3703 12.3189 10.2733 12.3832 10.1213 12.3873C9.95276 12.3918 9.82211 12.3202 9.7452 12.2517C9.67989 12.1935 9.65255 12.1385 9.64834 12.1302C9.64179 12.1171 9.64206 12.1146 9.6475 12.1314L10.8654 11.7375ZM11.1629 12.6437C11.0616 12.344 10.9629 12.0426 10.8661 11.7396L9.64685 12.1294C9.74547 12.4378 9.84633 12.7461 9.95021 13.0535L11.1629 12.6437ZM11.3115 12.9415C11.3365 12.954 11.3415 12.9625 11.3298 12.9507C11.319 12.9399 11.3012 12.9191 11.2792 12.8859C11.234 12.8178 11.1917 12.729 11.1628 12.6436L9.95024 13.0536C10.0095 13.2288 10.0977 13.4205 10.2127 13.5938C10.3205 13.7562 10.4909 13.9618 10.7372 14.0855L11.3115 12.9415ZM11.0317 12.9064C11.163 12.8902 11.2611 12.9231 11.293 12.9349C11.3107 12.9414 11.3221 12.9468 11.3226 12.947C11.3228 12.9471 11.3214 12.9465 11.3107 12.9411L10.738 14.0859C10.7459 14.0898 10.7965 14.1161 10.851 14.1361C10.9107 14.1581 11.0333 14.1959 11.1882 14.1768L11.0317 12.9064ZM10.7789 12.8674C10.742 12.9427 10.714 12.9996 10.6909 13.0453C10.667 13.0924 10.6542 13.1155 10.648 13.126C10.6453 13.1305 10.6473 13.1267 10.6536 13.118C10.6595 13.1098 10.6744 13.0899 10.6988 13.0656C10.7235 13.041 10.764 13.0058 10.8219 12.974C10.8827 12.9406 10.9537 12.916 11.0317 12.9064L11.1882 14.1768C11.3839 14.1527 11.521 14.0533 11.602 13.9726C11.6732 13.9017 11.7208 13.826 11.7471 13.782C11.8 13.6933 11.8618 13.5663 11.9279 13.4317L10.7789 12.8674ZM10.7542 12.9248L10.7541 12.9248L11.9526 13.3743L11.9527 13.3743L10.7542 12.9248ZM11.3576 11.6156C11.2428 11.8009 11.1638 11.9271 11.0763 12.1182C10.9971 12.291 10.9094 12.5205 10.7559 12.9201L11.9509 13.3789C12.1124 12.9583 12.1821 12.7776 12.24 12.6512C12.2895 12.5431 12.3272 12.481 12.4457 12.2898L11.3576 11.6156ZM11.747 10.9255C11.6137 11.1728 11.4909 11.4002 11.3573 11.6161L12.446 12.2893C12.6029 12.0356 12.7435 11.7744 12.8737 11.5328L11.747 10.9255ZM12.1449 10.2175C12.0002 10.4554 11.869 10.6991 11.747 10.9255L12.8737 11.5328C12.9984 11.3015 13.114 11.0873 13.2385 10.8826L12.1449 10.2175ZM13.0694 8.82632C12.7494 9.27471 12.4375 9.73768 12.1453 10.2167L13.2381 10.8833C13.5106 10.4365 13.8046 9.99962 14.1113 9.56991L13.0694 8.82632ZM14.7422 8.8452C14.5738 8.59894 14.2902 8.37253 13.9092 8.3688C13.5289 8.36508 13.2416 8.58523 13.0695 8.82619L14.1112 9.57004C14.1205 9.55694 14.0554 9.65029 13.8967 9.64874C13.7374 9.64718 13.6748 9.55193 13.6855 9.56753L14.7422 8.8452ZM15.0785 9.42401C14.9876 9.25251 14.8775 9.04322 14.7422 8.84531L13.6854 9.56742C13.7732 9.696 13.8507 9.84066 13.9476 10.0235L15.0785 9.42401ZM15.271 9.77148C15.2074 9.6668 15.148 9.55508 15.0785 9.42401L13.9476 10.0235C14.014 10.1489 14.0907 10.2938 14.1768 10.4357L15.271 9.77148ZM15.3327 9.8734C15.3123 9.83962 15.2917 9.80571 15.2712 9.77178L14.1766 10.4354C14.197 10.469 14.2174 10.5027 14.2379 10.5365L15.3327 9.8734ZM16.0759 11.0422C15.8179 10.674 15.5815 10.2842 15.3327 9.8734L14.2379 10.5365C14.4829 10.941 14.741 11.3677 15.0276 11.7767L16.0759 11.0422ZM17.2106 12.3057C16.7853 11.965 16.4202 11.5341 16.076 11.0424L15.0274 11.7765C15.4105 12.3236 15.8555 12.8602 16.4102 13.3046L17.2106 12.3057ZM17.263 12.3506C17.2579 12.346 17.2337 12.3238 17.205 12.3013L16.4157 13.309C16.4084 13.3033 16.4036 13.2991 16.4022 13.2979C16.4014 13.2973 16.4012 13.2971 16.4019 13.2976C16.4026 13.2983 16.4036 13.2992 16.4057 13.3011L17.263 12.3506ZM17.2227 12.3209C17.2426 12.334 17.2563 12.3452 17.2623 12.3501C17.2639 12.3515 17.2651 12.3525 17.2659 12.3532C17.2667 12.3539 17.2671 12.3543 17.2672 12.3543C17.2672 12.3544 17.2669 12.3541 17.2662 12.3535C17.2654 12.3528 17.2645 12.352 17.263 12.3506L16.4057 13.3011C16.4111 13.306 16.4579 13.3498 16.5178 13.3893L17.2227 12.3209ZM16.7367 12.5107C16.7252 12.5574 16.7213 12.5496 16.741 12.5176C16.7645 12.4795 16.8307 12.3943 16.9589 12.3461C17.0856 12.2985 17.1891 12.3188 17.2278 12.3303C17.2611 12.3401 17.2625 12.3473 17.2237 12.3215L16.5169 13.3887C16.6586 13.4826 17.009 13.6946 17.4087 13.5445C17.8162 13.3915 17.9364 12.9926 17.9798 12.8157L16.7367 12.5107ZM16.7576 12.4254C16.7507 12.4536 16.7437 12.4822 16.7367 12.5107L17.9798 12.8156C17.9867 12.7877 17.9936 12.7597 18.0005 12.7314L16.7576 12.4254ZM16.9581 11.4017C16.9295 11.7219 16.8506 12.0476 16.7576 12.4254L18.0005 12.7314C18.0894 12.3705 18.1943 11.9495 18.233 11.5153L16.9581 11.4017ZM17.3483 9.22737C17.1812 9.92013 17.0247 10.6443 16.958 11.4025L18.2331 11.5146C18.2911 10.8544 18.4291 10.2054 18.5926 9.52756L17.3483 9.22737ZM17.3557 9.18977C17.3507 9.21596 17.349 9.22462 17.3477 9.22991L18.5932 9.52502C18.6021 9.48746 18.6091 9.45029 18.613 9.43002L17.3557 9.18977ZM17.6314 8.63446C17.4845 8.76681 17.4257 8.925 17.4018 8.99901C17.376 9.07902 17.3614 9.15985 17.3557 9.18978L18.613 9.43001C18.617 9.4089 18.6191 9.39837 18.621 9.38974C18.6228 9.38154 18.6226 9.3841 18.6198 9.39273C18.6171 9.40082 18.609 9.42462 18.5917 9.45601C18.5743 9.48771 18.5423 9.53668 18.4881 9.58545L17.6314 8.63446ZM18.8669 8.66493C18.7309 8.53766 18.5292 8.41037 18.268 8.39804C17.9973 8.38526 17.7793 8.50111 17.6312 8.63463L18.4883 9.58528C18.4525 9.61762 18.3542 9.68353 18.2076 9.67661C18.0706 9.67014 17.9976 9.60452 17.992 9.59928L18.8669 8.66493ZM19.3238 9.07238C19.1627 8.93211 19.0118 8.80057 18.8667 8.66481L17.9921 9.5994C18.1567 9.75338 18.3249 9.89984 18.4831 10.0376L19.3238 9.07238ZM19.8685 9.5612C19.6863 9.38793 19.4988 9.22482 19.3238 9.07238L18.4831 10.0376C18.6617 10.1931 18.8278 10.338 18.9864 10.4887L19.8685 9.5612ZM21.3245 10.9946C20.847 10.5135 20.3631 10.0322 19.8688 9.56151L18.9861 10.4884C19.4676 10.947 19.9419 11.4186 20.4161 11.8963L21.3245 10.9946ZM21.9949 11.7269C21.7824 11.4776 21.5594 11.2311 21.3244 10.9945L20.4162 11.8965C20.6237 12.1054 20.8246 12.3271 21.0208 12.5572L21.9949 11.7269ZM22.382 12.2085C22.2628 12.0553 22.1329 11.8882 21.9942 11.7261L21.0215 12.558C21.1377 12.6939 21.2495 12.8374 21.3719 12.9946L22.382 12.2085ZM22.58 12.4605C22.5148 12.379 22.4501 12.2959 22.382 12.2085L21.3719 12.9946C21.4389 13.0808 21.5093 13.1712 21.5813 13.2611L22.58 12.4605ZM22.5465 12.4364C22.5679 12.4497 22.5795 12.4606 22.5821 12.463C22.585 12.4657 22.5834 12.4646 22.5776 12.4575L21.5837 13.2641C21.642 13.3358 21.7373 13.4407 21.8715 13.524L22.5465 12.4364ZM21.8998 12.6902C21.9013 12.6828 21.9087 12.6493 21.9361 12.6039C21.9646 12.5568 22.0188 12.4908 22.1102 12.4417C22.3238 12.3269 22.5054 12.411 22.5457 12.4359L21.8724 13.5245C22.0699 13.6467 22.3918 13.7434 22.716 13.5692C23.0097 13.4114 23.1181 13.1272 23.1554 12.9393L21.8998 12.6902ZM22.1283 11.6226C22.0455 11.9782 21.97 12.3345 21.8997 12.6908L23.1555 12.9387C23.2235 12.594 23.296 12.252 23.375 11.9128L22.1283 11.6226ZM23.4195 11.0115C23.2527 10.9275 22.9388 10.8162 22.6079 10.9756C22.2819 11.1327 22.17 11.4428 22.1282 11.6231L23.3751 11.9124C23.386 11.8655 23.3632 12.0325 23.1635 12.1287C22.9591 12.2272 22.8089 12.1371 22.8441 12.1548L23.4195 11.0115ZM23.7524 11.2509C23.7047 11.2086 23.5781 11.0909 23.4185 11.0109L22.8451 12.1553C22.8293 12.1474 22.826 12.1432 22.839 12.1534C22.8448 12.158 22.8527 12.1644 22.8637 12.1739C22.8751 12.1837 22.8869 12.1941 22.9029 12.2083L23.7524 11.2509ZM23.7578 11.2556L23.7525 11.251L22.9028 12.2083L22.908 12.2129L23.7578 11.2556ZM25.439 13.5032C25.0063 12.6922 24.4843 11.9034 23.7588 11.2566L22.907 12.212C23.4752 12.7186 23.9129 13.362 24.3097 14.1057L25.439 13.5032Z" fill="#590800"/>
<path d="M13.2223 16.3584C12.6467 16.3584 12.5771 16.6615 12.5256 16.8483C12.4745 17.035 12.3414 17.4593 12.6841 17.7463C13.0272 18.0334 13.3872 18.0573 13.7014 17.7932C14.0156 17.5292 14.0341 17.3533 13.9701 17.025C13.9066 16.6967 13.7867 16.3584 13.2223 16.3584" stroke="#590800" stroke-width="1.28"/>
<path d="M19.3262 16.5159C18.86 16.8802 18.9678 17.1699 19.0278 17.3536C19.0877 17.5377 19.2104 17.9651 19.644 17.9807C20.0776 17.9963 20.3825 17.7879 20.4936 17.3753C20.6046 16.9623 20.5241 16.8082 20.2941 16.5823C20.0644 16.3565 19.7836 16.1585 19.3262 16.5159" stroke="#590800" stroke-width="1.28"/>
<path fill-rule="evenodd" clip-rule="evenodd" d="M32.2651 2.16865C31.8859 2.1337 31.506 2.10348 31.1258 2.08564C30.936 2.0769 30.7998 2.00626 30.7344 1.81803C30.6559 1.59156 30.5929 1.35854 30.5054 1.13608C30.4263 0.935469 30.3377 0.735947 30.2274 0.552809C30.1336 0.396614 29.9711 0.406808 29.8622 0.552809C29.8227 0.60633 29.7901 0.666406 29.7575 0.725388C29.565 1.0771 29.3829 1.43537 29.1777 1.77871C29.0874 1.9298 28.9407 2.01464 28.752 2.03248C28.4064 2.06488 28.0546 2.06452 27.7227 2.19778C27.5875 2.25239 27.5192 2.35834 27.5823 2.49233C27.647 2.62886 27.7227 2.77231 27.8287 2.87207C27.9929 3.02608 28.1911 3.14005 28.3683 3.27986C28.6309 3.48775 28.7954 3.7357 28.6536 4.10052C28.62 4.18681 28.6074 4.28147 28.5843 4.37213C28.5101 4.66049 28.4355 4.94849 28.3707 5.19789C28.3585 5.38322 28.44 5.46514 28.5675 5.42144C28.7159 5.37047 28.8612 5.30639 29.0027 5.23721C29.315 5.08466 29.6213 4.91827 29.9358 4.7719C30.1234 4.68416 30.3132 4.71911 30.4872 4.83198C30.5968 4.90298 30.6997 4.98599 30.8128 5.04861C31.0512 5.18078 31.2904 5.31258 31.5372 5.42509C31.6426 5.47278 31.7164 5.39632 31.7049 5.27544C31.694 5.16294 31.6772 5.04971 31.651 4.94012C31.568 4.58767 31.4717 4.23851 31.3971 3.88425C31.3642 3.72878 31.3768 3.55074 31.498 3.43969C31.7343 3.22415 31.999 3.0421 32.2325 2.82401C32.3516 2.7126 32.4352 2.55641 32.521 2.41186C32.5406 2.37909 32.5207 2.28625 32.4895 2.26331C32.4251 2.21562 32.3432 2.17593 32.2651 2.16865Z" fill="#4B0500"/>
</svg>
