<svg width="34" height="34" viewBox="0 0 34 34" fill="none" xmlns="http://www.w3.org/2000/svg">
<path fill-rule="evenodd" clip-rule="evenodd" d="M12.2999 25.2713H27.711C28.2701 25.259 28.7171 24.7961 28.7171 24.2292C28.7171 23.6624 28.2701 23.1994 27.711 23.1871H12.2999C12.058 23.1867 11.8463 23.0223 11.7828 22.7858C11.7193 22.5492 11.8197 22.2988 12.028 22.1742L15.1681 20.2582C15.4845 20.0691 14.6179 20.578 14.6145 20.2058C14.6142 20.1737 14.5635 20.1621 14.525 20.1425C14.4194 20.0889 14.2372 20.0576 14.1501 20.0083C13.9 19.8666 13.743 19.731 13.5263 19.6069C13.2065 19.4238 13.2145 18.9826 12.8981 19.1716L10.9831 20.3788C10.1941 20.8531 9.70936 21.7131 9.70703 22.6429C9.70863 24.0937 10.8685 25.2694 12.2999 25.2713Z" stroke="#333333" stroke-width="1.275" stroke-linecap="round" stroke-linejoin="round"/>
<path d="M26.2108 28.0499C26.9679 28.0499 27.5817 27.4278 27.5817 26.6604C27.5817 25.8931 26.9679 25.271 26.2108 25.271C25.4536 25.271 24.8398 25.8931 24.8398 26.6604C24.8398 27.4278 25.4536 28.0499 26.2108 28.0499Z" stroke="#333333" stroke-width="1.275" stroke-linecap="round" stroke-linejoin="round"/>
<path d="M13.3241 28.0499C14.0812 28.0499 14.695 27.4278 14.695 26.6604C14.695 25.8931 14.0812 25.271 13.3241 25.271C12.5669 25.271 11.9531 25.8931 11.9531 26.6604C11.9531 27.4278 12.5669 28.0499 13.3241 28.0499Z" stroke="#333333" stroke-width="1.275" stroke-linecap="round" stroke-linejoin="round"/>
<path fill-rule="evenodd" clip-rule="evenodd" d="M5.27844 7.18379C4.71064 7.18379 4.25027 6.71742 4.25 6.14194C4.25027 5.56647 4.71064 5.1001 5.27844 5.1001L10.171 5.10108C10.641 5.10106 11.0512 5.42398 11.1675 5.88553L11.6885 7.57258L27.6225 9.43564C28.3005 9.51388 28.9135 9.88105 29.3081 10.4452C29.7027 11.0094 29.8416 11.7173 29.69 12.3915L28.3573 18.3146C28.1124 19.4233 27.1394 20.21 26.0184 20.2056H15.1076C13.9866 20.21 13.0136 19.4233 12.7687 18.3146L9.49957 7.7079C9.42251 7.39959 9.14872 7.1837 8.83491 7.18379H5.27844Z" stroke="#333333" stroke-width="1.275" stroke-linecap="round" stroke-linejoin="round"/>
</svg>
