<svg width="34" height="34" viewBox="0 0 34 34" fill="none" xmlns="http://www.w3.org/2000/svg">
<rect width="34" height="34" fill="white"/>
<path fill-rule="evenodd" clip-rule="evenodd" d="M12.3005 25.2708H27.7116C28.2707 25.2585 28.7177 24.7956 28.7177 24.2287C28.7177 23.6619 28.2707 23.1989 27.7116 23.1866H12.3005C12.0586 23.1862 11.8469 23.0218 11.7834 22.7853C11.7199 22.5487 11.8203 22.2983 12.0286 22.1737L15.1687 20.2577C15.4851 20.0686 14.6185 20.5775 14.6151 20.2053C14.6149 20.1732 14.5641 20.1616 14.5256 20.142C14.4201 20.0884 14.2378 20.0571 14.1507 20.0078C13.9006 19.8661 13.7436 19.7305 13.5269 19.6064C13.2071 19.4233 13.2151 18.9821 12.8987 19.1712L10.9838 20.3783C10.1947 20.8526 9.70997 21.7126 9.70764 22.6424C9.70924 24.0932 10.8691 25.2689 12.3005 25.2708Z" stroke="#590800" stroke-width="1.275" stroke-linecap="round" stroke-linejoin="round"/>
<path d="M26.2114 28.0494C26.9685 28.0494 27.5823 27.4273 27.5823 26.66C27.5823 25.8926 26.9685 25.2705 26.2114 25.2705C25.4542 25.2705 24.8405 25.8926 24.8405 26.66C24.8405 27.4273 25.4542 28.0494 26.2114 28.0494Z" stroke="#590800" stroke-width="1.275" stroke-linecap="round" stroke-linejoin="round"/>
<path d="M13.3236 28.0494C14.0807 28.0494 14.6945 27.4273 14.6945 26.66C14.6945 25.8926 14.0807 25.2705 13.3236 25.2705C12.5664 25.2705 11.9526 25.8926 11.9526 26.66C11.9526 27.4273 12.5664 28.0494 13.3236 28.0494Z" stroke="#590800" stroke-width="1.275" stroke-linecap="round" stroke-linejoin="round"/>
<path fill-rule="evenodd" clip-rule="evenodd" d="M5.27844 7.1833C4.71064 7.1833 4.25027 6.71693 4.25 6.14145C4.25027 5.56598 4.71064 5.09961 5.27844 5.09961L10.171 5.10059C10.641 5.10057 11.0512 5.42349 11.1675 5.88504L11.6885 7.57209L27.6225 9.43515C28.3005 9.5134 28.9135 9.88056 29.3081 10.4448C29.7027 11.0089 29.8416 11.7168 29.69 12.3911L28.3573 18.3141C28.1124 19.4228 27.1394 20.2095 26.0184 20.2052H15.1076C13.9866 20.2095 13.0136 19.4228 12.7687 18.3141L9.49957 7.70741C9.42251 7.3991 9.14872 7.18321 8.83491 7.1833H5.27844Z" fill="#DECECC" stroke="#590800" stroke-width="1.275" stroke-linecap="round" stroke-linejoin="round"/>
</svg>
