<svg width="34" height="34" viewBox="0 0 34 34" fill="none" xmlns="http://www.w3.org/2000/svg">
<rect width="34" height="34" fill="white"/>
<path d="M15.6349 4.49541C16.48 3.76455 17.7333 3.76455 18.5784 4.49541L22.7295 8.08627L22.7298 6.00161C22.7298 5.42194 23.1684 4.94471 23.7318 4.88366L23.8544 4.87706H26.1035C26.7246 4.87706 27.228 5.38053 27.228 6.00161L27.2275 11.9763L30.5252 14.8289C31.1908 15.4061 31.2974 16.3883 30.7963 17.0915L30.6952 17.2199C30.0819 17.9271 29.0113 18.0032 28.3041 17.3899L17.1071 7.64976L5.91173 17.3899C5.45424 17.7868 4.81976 17.9095 4.24729 17.7118C3.67482 17.514 3.25133 17.0259 3.13634 16.4312C3.02135 15.8366 3.23234 15.2258 3.68983 14.8289L15.6349 4.49541Z" stroke="#333333" stroke-width="1.275" stroke-linecap="round" stroke-linejoin="round"/>
<path fill-rule="evenodd" clip-rule="evenodd" d="M28.3066 17.3905L17.1095 7.65039L6.16406 17.1704V29.8048C6.16406 30.3212 6.58268 30.7398 7.09906 30.7398H27.3673C27.8837 30.7398 28.3023 30.3212 28.3023 29.8048L28.3066 17.3905Z" stroke="#333333" stroke-width="1.275" stroke-linecap="round" stroke-linejoin="round"/>
<path d="M20.2864 30.742H13.5391V22.027C13.5391 20.1638 15.0495 18.6533 16.9127 18.6533C18.7759 18.6533 20.2864 20.1638 20.2864 22.027V30.742Z" stroke="#333333" stroke-width="1.275" stroke-linejoin="round"/>
</svg>
