<svg width="34" height="34" viewBox="0 0 34 34" fill="none" xmlns="http://www.w3.org/2000/svg">
<rect width="34" height="34" fill="white"/>
<path d="M6.54149 27.6797V14.9297" stroke="#333333" stroke-width="1.275" stroke-linecap="round" stroke-linejoin="round"/>
<path d="M28.3071 14.9297V27.6797" stroke="#333333" stroke-width="1.275" stroke-linecap="round" stroke-linejoin="round"/>
<path fill-rule="evenodd" clip-rule="evenodd" d="M27.5972 5.9502H7.24886C6.81511 5.95043 6.41869 6.19567 6.22481 6.58374L4.25 10.5328H30.596L28.6212 6.58374C28.4273 6.19567 28.0309 5.95043 27.5972 5.9502Z" stroke="#333333" stroke-width="1.275" stroke-linecap="round" stroke-linejoin="round"/>
<path fill-rule="evenodd" clip-rule="evenodd" d="M30.5979 11.6789C30.6472 13.061 29.8238 14.3254 28.5399 14.839C27.256 15.3527 25.7879 15.0051 24.8705 13.9702C24.1182 15.2426 22.8045 16.0801 21.3336 16.2249C19.8627 16.3697 18.4109 15.8046 17.4249 14.7034C16.4389 15.8046 14.9871 16.3697 13.5162 16.2249C12.0453 16.0801 10.7316 15.2426 9.97928 13.9702C9.06083 15.0023 7.5942 15.348 6.31154 14.8349C5.02889 14.3218 4.20528 13.0597 4.25188 11.6789V10.5332H30.5979V11.6789Z" stroke="#333333" stroke-width="1.275" stroke-linecap="round" stroke-linejoin="round"/>
<path d="M9.98047 13.9698V10.5328L11.1259 5.9502" stroke="#333333" stroke-width="1.275" stroke-linecap="round" stroke-linejoin="round"/>
<path d="M17.4243 14.7099V10.5328V5.9502" stroke="#333333" stroke-width="1.275" stroke-linecap="round" stroke-linejoin="round"/>
<path d="M24.872 13.9698V10.5328L23.7266 5.9502" stroke="#333333" stroke-width="1.275" stroke-linecap="round" stroke-linejoin="round"/>
<path d="M6.54297 28.05H28.3071" stroke="#333333" stroke-width="1.275" stroke-linecap="round" stroke-linejoin="round"/>
<path d="M6.54297 25.1304H28.3071" stroke="#333333" stroke-width="1.275" stroke-linecap="round" stroke-linejoin="round"/>
</svg>
